<?xml version="1.0" encoding="UTF-8"?>
<svg version="1.1" xmlns="http://www.w3.org/2000/svg" width="1668" height="517">
<path d="M0 0 C550.44 0 1100.88 0 1668 0 C1668 170.61 1668 341.22 1668 517 C1570.65 517 1473.3 517 1373 517 C1376.10629939 513.89370061 1379.24811038 512.10533185 1383.0625 510.0625 C1407.27539692 496.73819387 1428.92675443 479.52435709 1449.06640625 460.7109375 C1451.41932141 458.53660578 1453.80226389 456.43982293 1456.25 454.375 C1465.9113248 445.92386202 1473.09059434 435.71500778 1480 425 C1480.37012207 424.42797852 1480.74024414 423.85595703 1481.12158203 423.26660156 C1503.58924778 387.9225444 1511.37782061 342.46217961 1502.375 301.6875 C1496.99950489 279.29047098 1485.90928151 259.39671559 1471 242 C1470.52836426 241.44860352 1470.05672852 240.89720703 1469.57080078 240.32910156 C1428.40950819 192.79777487 1362.09990074 163.65083421 1304 144 C1302.89285645 143.62278809 1301.78571289 143.24557617 1300.64501953 142.85693359 C1280.34351079 135.98652423 1259.74405274 130.35067265 1239 125 C1238.18821289 124.78986267 1237.37642578 124.57972534 1236.54003906 124.36322021 C1170.71607642 107.35313928 1103.76827907 94.66031414 1037 82 C1035.9308007 81.79709351 1034.86160141 81.59418701 1033.76000214 81.38513184 C1018.87473602 78.56120153 1003.98413983 75.76726894 989.08685303 73.00744629 C984.65407907 72.18603453 980.22254599 71.35840599 975.79205322 70.52478027 C947.71187652 65.24925405 919.72642025 61.00942965 891.28739548 58.22423553 C889.16156714 58.01583858 887.03618499 57.80346311 884.91091919 57.5894165 C877.0708325 56.80579984 869.22653752 56.09581554 861.375 55.4375 C860.18477234 55.3367215 858.99454468 55.23594299 857.76824951 55.1321106 C774.76618366 48.15190953 691.27039938 45.02364952 608 43.4375 C606.90880859 43.41665344 605.81761719 43.39580688 604.69335938 43.37432861 C514.65065943 41.69638368 424.93136244 44.99406747 66.25 90.1875 C64.97032223 90.37625324 63.69064445 90.56500648 62.37218857 90.75947952 C54.99567401 91.84765745 47.6196445 92.93902395 40.24435234 94.03545761 C37.99435227 94.36971525 35.74423914 94.70321286 33.4940052 95.03589249 C30.39568986 95.49432427 27.29788246 95.95604613 24.20019531 96.41870117 C23.30826571 96.55008012 22.41633612 96.68145906 21.49737835 96.81681919 C16.36338399 97.58799209 11.29357734 98.51704785 6.21952438 99.61809254 C4 100 4 100 0 100 C0 67 0 34 0 0 Z " fill="#FDFDFD" transform="translate(0,0)"/>
<path d="M0 0 C7.21247247 0.0034424 14.42484761 -0.00600692 21.63730025 -0.02250129 C72.15868818 -0.13542345 122.50324848 0.54402012 172.96134734 3.14384431 C178.80737643 3.43882281 184.65494704 3.69808564 190.50276732 3.95466965 C230.69186392 5.72695073 270.88126134 8.47778119 310.90065169 12.56824273 C316.88456379 13.17757914 322.87191735 13.73786713 328.86239791 14.2785241 C347.68038073 15.98590876 366.42277792 17.97323473 385.15414596 20.46236199 C392.72755791 21.46813232 400.2979783 22.45083383 407.89364791 23.27461785 C408.58965606 23.35012872 409.28566421 23.42563958 410.00276351 23.50343865 C411.40812605 23.6555875 412.81349614 23.80766675 414.21887374 23.95967644 C433.99531754 26.10772795 453.63829384 29.08322887 473.299196 32.09395379 C479.71833945 33.07543369 486.14120984 34.01734409 492.57284713 34.91377801 C501.72708585 36.23771271 510.81025379 37.72750576 519.87411666 39.5753991 C520.94457229 39.7917048 522.01502791 40.00801049 523.11792159 40.2308709 C553.50464102 46.38954459 583.86969942 52.69911238 614.07724166 59.68868035 C614.91728744 59.88142541 615.75733321 60.07417046 616.62283492 60.27275628 C628.43876529 62.99233763 640.07915505 66.17197739 651.7193315 69.56093377 C655.91604334 70.7722717 660.12589731 71.93555347 664.33505416 73.10274285 C685.73968887 79.07273855 706.82429559 85.61268985 727.76230025 93.05489129 C730.77229082 94.11772593 733.78817751 95.15324946 736.81552291 96.16524285 C808.21701559 120.13470946 903.03268185 161.05667245 938.82724166 232.68868035 C957.05541722 270.44737042 954.08842971 313.69997759 941.21396041 352.6847741 C940.05675672 355.65142355 938.74338249 358.4604705 937.32724166 361.31368035 C936.96533736 362.06294793 936.60343307 362.81221551 936.23056197 363.58418816 C930.1003013 376.19735649 923.21546899 387.47366608 914.32724166 398.31368035 C913.86801314 398.88570184 913.40878463 399.45772332 912.9356401 400.04707879 C900.71887467 415.21542871 886.81843404 429.4257478 871.11679244 440.97725457 C869.16826083 442.43240628 867.26075511 443.93240887 865.35458541 445.4425866 C848.65866136 458.60566486 830.44483974 469.327593 811.96273971 479.78316277 C810.30399663 480.74644766 808.66971952 481.75452473 807.07650924 482.82271355 C800.60649288 486.99237789 794.81235043 486.90927012 787.26474166 486.62618035 C786.11296432 486.60362176 784.96118697 486.58106316 783.77450728 486.55782098 C780.95736416 486.49937402 778.14301602 486.41749506 775.32724166 486.31368035 C778.26699341 483.18768004 781.64172079 481.38346781 785.38974166 479.37618035 C809.60263858 466.05187422 831.25399609 448.83803744 851.39364791 430.02461785 C853.74656307 427.85028613 856.12950555 425.75350328 858.57724166 423.68868035 C868.23856646 415.23754237 875.417836 405.02868813 882.32724166 394.31368035 C882.69736373 393.74165887 883.0674858 393.16963738 883.44882369 392.58028191 C905.91648944 357.23622475 913.70506227 311.77585996 904.70224166 271.00118035 C899.32674654 248.60415133 888.23652317 228.71039594 873.32724166 211.31368035 C872.85560592 210.76228387 872.38397017 210.21088738 871.89804244 209.64278191 C830.73674985 162.11145522 764.4271424 132.96451456 706.32724166 113.31368035 C705.2200981 112.93646844 704.11295455 112.55925652 702.97226119 112.17061394 C682.67075245 105.30020458 662.0712944 99.664353 641.32724166 94.31368035 C640.51545455 94.10354302 639.70366744 93.89340569 638.86728072 93.67690057 C573.04331807 76.66681963 506.09552073 63.97399449 439.32724166 51.31368035 C437.72344272 51.00932061 437.72344272 51.00932061 436.0872438 50.69881219 C421.20197767 47.87488188 406.31138149 45.08094929 391.41409469 42.32112664 C386.98132073 41.49971488 382.54978765 40.67208634 378.11929488 39.83846062 C350.03911818 34.5629344 322.05366191 30.32311 293.61463714 27.53791589 C291.4888088 27.32951893 289.36342665 27.11714346 287.23816085 26.90309685 C279.39807416 26.11948019 271.55377918 25.40949589 263.70224166 24.75118035 C262.512014 24.65040185 261.32178634 24.54962334 260.09549117 24.44579095 C177.09342532 17.46558988 93.59764104 14.33732987 10.32724166 12.75118035 C9.23605025 12.73033379 8.14485885 12.70948724 7.02060103 12.68800896 C-83.02209891 11.01006403 -172.7413959 14.30774782 -497.8516674 54.62499708 C-499.84918572 54.92198985 -501.84673529 55.21877159 -503.84429193 55.51550645 C-516.87901663 57.45211532 -529.9126437 59.39572109 -542.94245839 61.36513871 C-547.77050615 62.09375508 -552.59937382 62.81683262 -557.428406 63.53889245 C-559.67893135 63.87688961 -561.92906039 64.21753776 -564.17875314 64.56103295 C-567.27573486 65.03378775 -570.37394146 65.49756667 -573.47256303 65.9594323 C-574.36449263 66.0980018 -575.25642222 66.2365713 -576.17537999 66.37933987 C-582.0444327 67.24183631 -587.74391333 67.46802126 -593.67275834 67.31368035 C-590.06176244 64.42508582 -587.1540832 63.49020026 -582.61025834 62.4816491 C-581.5674093 62.24599992 -581.5674093 62.24599992 -580.50349259 62.00559014 C-578.22865272 61.49427184 -575.95092374 60.99745263 -573.67275834 60.50118035 C-572.08706968 60.14870057 -570.50154038 59.79550313 -568.91616654 59.44161004 C-564.92071164 58.55271697 -560.92257982 57.6766134 -556.92330766 56.80507439 C-554.82788807 56.347552 -552.73329417 55.88648904 -550.63906693 55.42354363 C-537.725298 52.57275867 -524.80438925 49.85687983 -511.77114701 47.60567254 C-507.46426292 46.85709004 -503.27839414 45.95273112 -499.04434037 44.85371941 C-493.3333229 43.55324889 -487.51646295 42.74153667 -481.73525834 41.81368035 C-470.66296549 40.04169563 -470.66296549 40.04169563 -459.6881392 37.76045769 C-456.12633638 36.97086361 -452.52774347 36.42805079 -448.92275834 35.87618035 C-448.11274369 35.74985223 -447.30272904 35.6235241 -446.4681685 35.49336785 C-439.44300277 34.4078192 -432.40448166 33.42213912 -425.36440873 32.43892449 C-420.00419861 31.67953257 -414.68231329 30.8031564 -409.36025834 29.81368035 C-401.65164941 28.39093506 -393.90931354 27.43509864 -386.12783647 26.50459832 C-380.03326086 25.76497453 -373.97343493 24.91422957 -367.91323686 23.93282098 C-334.01234637 18.4457836 -299.7348904 15.43859064 -265.55818009 12.25569695 C-258.15861326 11.56158207 -250.76666629 10.81013648 -243.37588334 10.0285241 C-217.92034188 7.36550036 -192.47522363 5.50461057 -166.92275834 4.12618035 C-166.18852773 4.08636418 -165.45429711 4.04654801 -164.69781709 4.00552529 C-155.76819942 3.52257085 -146.83741171 3.07566462 -137.90432286 2.6618821 C-133.08473753 2.43625142 -128.2676929 2.18158156 -123.45063996 1.90743035 C-82.3408494 -0.39785852 -41.15853774 -0.02636758 0 0 Z " fill="#F1F44A" transform="translate(597.6727583408356,30.686319649219513)"/>
<path d="M0 0 C0.495 1.98 0.495 1.98 1 4 C0.34 4.33 -0.32 4.66 -1 5 C0.65 5.33 2.3 5.66 4 6 C4 6.33 4 6.66 4 7 C-4.56169181 8.31258945 -13.12456828 9.61708059 -21.68902397 10.91151428 C-25.66666295 11.51294978 -29.64385394 12.11706902 -33.62011719 12.72753906 C-37.46412176 13.31759897 -41.30917561 13.90032486 -45.15503311 14.47817993 C-46.61527528 14.69886447 -48.07513451 14.92209985 -49.5345726 15.14804077 C-57.37967071 16.3607959 -65.04163268 17.37366708 -73 17 C-69.3890041 14.11140547 -66.48132485 13.17651991 -61.9375 12.16796875 C-61.24154221 12.01068802 -60.54558441 11.85340729 -59.82853699 11.69136047 C-57.55444065 11.18016486 -55.27745887 10.68348059 -53 10.1875 C-51.42603567 9.83792545 -49.8522249 9.48765874 -48.27856445 9.13671875 C-44.28853177 8.24973902 -40.29579249 7.37561506 -36.30230713 6.5043335 C-33.41993547 5.87293356 -30.53997557 5.23099752 -27.66012573 4.58821106 C-24.50408033 3.88531785 -21.34578929 3.19272999 -18.1875 2.5 C-16.46563477 2.11751099 -16.46563477 2.11751099 -14.70898438 1.72729492 C-13.64357422 1.4976001 -12.57816406 1.26790527 -11.48046875 1.03125 C-10.56160889 0.83080078 -9.64274902 0.63035156 -8.69604492 0.42382812 C-5.75927645 -0.03784262 -2.96809668 -0.07198691 0 0 Z " fill="#F4EE58" transform="translate(77,81)"/>
<path d="M0 0 C0.33 1.32 0.66 2.64 1 4 C-2.33069474 4.53870917 -5.66477686 5.05264279 -9 5.5625 C-9.93457031 5.71396484 -10.86914062 5.86542969 -11.83203125 6.02148438 C-17.52660144 6.87766101 -22.32437499 7.01063606 -28 6 C-28 5.67 -28 5.34 -28 5 C-7.14160839 -0.37587413 -7.14160839 -0.37587413 0 0 Z " fill="#FCF39B" transform="translate(77,81)"/>
<path d="M0 0 C0 0.33 0 0.66 0 1 C2.475 1.495 2.475 1.495 5 2 C5 2.33 5 2.66 5 3 C1.77176021 3.50610903 -1.45772365 4.00379907 -4.6875 4.5 C-5.59951172 4.64308594 -6.51152344 4.78617187 -7.45117188 4.93359375 C-8.78051758 5.13662109 -8.78051758 5.13662109 -10.13671875 5.34375 C-11.35427856 5.53227539 -11.35427856 5.53227539 -12.59643555 5.72460938 C-15.08533405 6.00977723 -17.49706689 6.04674739 -20 6 C-17.40335077 2.29050111 -14.83127574 1.54392325 -10.5625 0.75 C-7.00010387 0.17526015 -3.6075478 -0.07856728 0 0 Z " fill="#F4F570" transform="translate(76,85)"/>
<path d="M0 0 C0 1.65 0 3.3 0 5 C-6.26039609 5.93213141 -11.02197063 6.20927172 -17 4 C-17 3.67 -17 3.34 -17 3 C-14.91798472 2.49453964 -12.83432933 1.99583165 -10.75 1.5 C-9.58984375 1.2215625 -8.4296875 0.943125 -7.234375 0.65625 C-4 0 -4 0 0 0 Z " fill="#FCF39D" transform="translate(99,76)"/>
<path d="M0 0 C1.66519519 0.34060811 3.33157466 0.67558396 5 1 C5 1.33 5 1.66 5 2 C-0.70690634 2.99250545 -6.21408489 3.10477512 -12 3 C-7.75171505 -0.29242084 -5.26328106 -1.59493365 0 0 Z " fill="#F7EE72" transform="translate(16,95)"/>
</svg>
