<svg width="1920" height="900" viewBox="0 0 1920 900" fill="none" xmlns="http://www.w3.org/2000/svg">
<g clip-path="url(#clip0_30_283)">
<path d="M0 251C4.63314 254.861 7.48156 257.683 10.5625 262.562C10.9876 263.217 11.4126 263.871 11.8506 264.545C13.2425 266.691 14.6213 268.845 16 271C17.9121 273.961 19.8308 276.918 21.75 279.875C22.2857 280.701 22.8214 281.528 23.3733 282.379C37.6733 304.387 52.4081 326.113 67.0983 347.861C76.0294 361.085 84.911 374.34 93.75 387.625C101.991 400.01 110.281 412.358 118.668 424.645C123.467 431.676 128.233 438.728 133 445.781C142.975 460.538 152.972 475.279 163 490C163.974 491.429 163.974 491.429 164.967 492.888C173.628 505.603 182.304 518.309 191 531C191.453 531.661 191.905 532.322 192.372 533.003C198.901 542.534 205.489 552.024 212.093 561.504C215.956 567.053 219.803 572.611 223.625 578.188C234.25 593.682 245.069 609.041 256.082 624.262C256.62 625.005 257.158 625.748 257.712 626.514C258.824 628.051 259.937 629.588 261.05 631.124C264.195 635.473 267.3 639.846 270.371 644.248C277.285 654.148 284.577 663.737 291.936 673.311C295.303 677.697 298.651 682.099 302 686.5C303.327 688.241 304.654 689.982 305.98 691.723C308.715 695.312 311.446 698.903 314.176 702.496C324.907 716.617 335.794 730.573 347.004 744.316C349.4 747.256 351.769 750.215 354.125 753.188C361.354 762.239 368.9 770.992 376.738 779.52C378.68 781.649 380.567 783.809 382.438 786C390.207 794.898 398.71 802.72 408 810C408.962 810.779 409.923 811.557 410.914 812.359C452.774 845.635 506.147 864.39 559 870C559.849 870.094 560.698 870.187 561.573 870.283C572.52 871.307 583.516 871.258 594.502 871.295C596.834 871.307 599.167 871.327 601.5 871.357C615.602 871.537 629.441 870.977 643.448 869.387C644.598 869.259 644.598 869.259 645.771 869.127C664.022 867.064 682.083 864.005 700.172 860.855C704.957 860.025 709.744 859.209 714.531 858.391C715.521 858.222 716.511 858.054 717.531 857.879C719.561 857.533 721.592 857.186 723.622 856.84C726.73 856.309 729.837 855.778 732.944 855.245C755.462 851.392 778.002 847.672 800.544 843.96C806.263 843.017 811.981 842.074 817.7 841.13C826.031 839.756 834.362 838.381 842.693 837.008C870.325 832.452 897.956 827.887 925.586 823.32C926.274 823.207 926.962 823.093 927.671 822.976C1000.23 810.983 1072.77 798.924 1434.6 738.096C1439.53 737.252 1444.45 736.41 1449.37 735.569C1514.86 724.378 1580.13 712.449 1645.19 698.993C1649.71 698.058 1654.24 697.131 1658.76 696.205C1666.05 694.714 1673.34 693.205 1680.62 691.688C1682.12 691.379 1682.12 691.379 1683.64 691.064C1693.59 689.003 1703.43 686.719 1713.21 683.969C1714.05 683.736 1714.88 683.503 1715.74 683.263C1725.27 680.504 1734.14 676.388 1743 672C1743.88 671.565 1744.77 671.13 1745.67 670.682C1780.44 653.383 1813.45 628.113 1836.69 596.764C1838.02 594.971 1839.38 593.196 1840.73 591.422C1886 531.707 1901.21 455.357 1918 384C1918.66 384 1919.32 384 1920 384C1920 554.28 1920 724.56 1920 900C1286.4 900 652.8 900 0 900C0 685.83 0 471.66 0 251Z" fill="#FDFDFD"/>
<path d="M0 385C1.97265 387.959 2.49164 389.561 3.19922 392.965C3.43117 394.045 3.66312 395.125 3.9021 396.238C4.16128 397.459 4.42046 398.68 4.6875 399.938C8.00852 415.158 11.6998 430.289 15.454 445.408C16.1015 448.016 16.744 450.625 17.3841 453.235C30.7664 507.743 50.5323 559.505 87 603C87.4895 603.59 87.979 604.179 88.4834 604.787C96.9689 614.98 105.882 624.399 116 633C116.933 633.811 117.867 634.622 118.828 635.457C136.723 650.926 155.784 663.986 177.188 674.134C178.875 674.94 180.547 675.776 182.219 676.613C191.486 681.141 201.099 684.201 211 687C211.74 687.21 212.48 687.42 213.243 687.636C228.206 691.756 243.565 694.066 258.872 696.502C259.749 696.645 260.626 696.788 261.529 696.935C263.182 697.204 264.837 697.467 266.492 697.72C272.561 698.719 279.005 699.941 282.957 705.082C283.424 705.677 283.891 706.271 284.373 706.884C284.848 707.52 285.323 708.157 285.812 708.812C286.329 709.48 286.845 710.148 287.377 710.837C291.064 715.643 294.591 720.56 298.072 725.517C303.752 733.567 309.91 741.259 316 749C316.985 750.255 317.969 751.51 318.953 752.766C320.753 755.061 322.557 757.354 324.363 759.645C326.143 761.904 327.91 764.173 329.668 766.449C335.014 773.35 340.546 780.033 346.3 786.599C349.486 790.237 352.593 793.919 355.625 797.688C368.968 814.095 383.915 829.498 401 842C401.58 842.43 402.16 842.86 402.757 843.303C423.674 858.784 446.528 871.134 471 880C472.216 880.446 472.216 880.446 473.456 880.9C499.012 890.162 525.173 895.256 552 899C552 899.33 552 899.66 552 900C369.84 900 187.68 900 0 900C0 730.05 0 560.1 0 385Z" fill="#FDFDFD"/>
<path d="M-3.20077e-05 251C4.35512 254.521 7.55198 257.795 10.5625 262.562C10.9875 263.217 11.4126 263.871 11.8506 264.545C13.2425 266.691 14.6213 268.845 16 271C17.9121 273.961 19.8308 276.918 21.75 279.875C22.2857 280.701 22.8213 281.528 23.3733 282.379C37.6733 304.387 52.408 326.113 67.0982 347.861C76.0293 361.085 84.911 374.34 93.75 387.625C101.991 400.01 110.281 412.358 118.668 424.645C123.467 431.676 128.233 438.728 133 445.781C142.975 460.538 152.972 475.279 163 490C163.974 491.429 163.974 491.429 164.967 492.888C173.628 505.603 182.304 518.309 191 531C191.453 531.661 191.905 532.322 192.372 533.003C198.901 542.534 205.489 552.024 212.092 561.504C215.955 567.053 219.803 572.611 223.625 578.188C234.25 593.682 245.069 609.041 256.082 624.262C256.62 625.005 257.158 625.748 257.712 626.514C258.824 628.051 259.937 629.588 261.05 631.124C264.195 635.473 267.3 639.846 270.371 644.248C277.285 654.148 284.577 663.737 291.936 673.311C295.303 677.697 298.651 682.099 302 686.5C303.327 688.241 304.654 689.982 305.98 691.723C308.715 695.312 311.446 698.903 314.176 702.496C324.907 716.617 335.794 730.573 347.004 744.316C349.4 747.256 351.769 750.215 354.125 753.188C361.354 762.239 368.9 770.992 376.738 779.52C378.68 781.649 380.567 783.809 382.437 786C390.207 794.898 398.71 802.72 408 810C408.962 810.779 409.923 811.557 410.914 812.359C452.774 845.635 506.147 864.39 559 870C559.849 870.094 560.698 870.187 561.573 870.283C572.519 871.307 583.516 871.258 594.502 871.295C596.834 871.307 599.167 871.327 601.5 871.357C615.602 871.537 629.441 870.977 643.448 869.387C644.598 869.259 644.598 869.259 645.771 869.127C664.022 867.064 682.083 864.005 700.172 860.855C704.957 860.025 709.744 859.209 714.531 858.391C715.521 858.222 716.511 858.054 717.531 857.879C719.561 857.533 721.592 857.186 723.622 856.84C726.73 856.309 729.837 855.778 732.944 855.245C755.462 851.392 778.002 847.672 800.544 843.96C806.263 843.017 811.981 842.074 817.7 841.13C826.031 839.756 834.362 838.381 842.693 837.008C870.325 832.452 897.956 827.887 925.586 823.32C926.274 823.207 926.962 823.093 927.671 822.976C1000.22 810.983 1072.77 798.925 1366.69 749.688C1367.55 749.541 1368.41 749.395 1369.3 749.245C1403.73 743.406 1438.16 737.529 1472.56 731.469C1473.76 731.257 1474.96 731.046 1476.2 730.828C1487.01 728.924 1497.82 727.016 1508.62 725.073C1512.22 724.425 1515.83 723.783 1519.44 723.141C1521.81 722.717 1524.18 722.285 1526.55 721.852C1533.44 720.617 1539.99 719.662 1547 720C1547 720.66 1547 721.32 1547 722C1531.39 725.652 1515.73 728.927 1500 732C1498.46 732.301 1496.93 732.602 1495.39 732.903C1480.56 735.809 1465.72 738.708 1450.88 741.566C1440.08 743.647 1429.28 745.736 1418.5 747.902C1417.66 748.07 1416.82 748.238 1415.96 748.411C1411.94 749.219 1407.92 750.03 1403.9 750.846C1393.58 752.93 1383.24 754.905 1372.89 756.85C1359.52 759.362 1346.17 761.931 1332.84 764.613C1332.1 764.763 1331.35 764.913 1330.59 765.067C1326.79 765.833 1322.98 766.6 1319.18 767.367C1290.08 773.243 1260.94 778.907 1231.76 784.354C1221.54 786.266 1211.33 788.25 1201.12 790.25C1200.28 790.415 1199.44 790.58 1198.57 790.75C1195.32 791.388 1192.06 792.027 1188.81 792.666C1181.27 794.145 1173.73 795.606 1166.19 797.062C1155.54 799.121 1144.89 801.182 1134.25 803.25C1133.52 803.391 1132.8 803.532 1132.05 803.677C1122.2 805.592 1112.35 807.52 1102.5 809.457C1098.08 810.326 1093.67 811.194 1089.25 812.062C1088.15 812.278 1087.05 812.495 1085.92 812.717C1071.47 815.557 1057 818.34 1042.52 821.028C1035.04 822.419 1027.58 823.866 1020.12 825.375C1009.04 827.617 997.927 829.757 986.812 831.875C985.917 832.046 985.021 832.217 984.097 832.392C970.23 835.032 956.349 837.593 942.463 840.128C932.225 842 922.023 843.981 911.845 846.157C903.609 847.907 895.34 849.465 887.062 851C877.737 852.73 868.421 854.49 859.125 856.375C847.931 858.639 836.718 860.799 825.5 862.938C824.589 863.111 823.679 863.285 822.74 863.464C813.67 865.192 804.598 866.909 795.508 868.531C794.849 868.649 794.19 868.767 793.511 868.888C791.549 869.238 789.587 869.588 787.625 869.938C773.998 872.369 760.45 875.14 746.898 877.954C730.719 881.307 714.494 884.336 698.23 887.25C688.364 889.019 678.513 890.828 668.687 892.812C667.707 893.01 666.727 893.208 665.718 893.412C661.742 894.221 657.771 895.046 653.805 895.898C633.977 900.079 614.373 900.405 594.211 900.426C591.012 900.43 587.813 900.45 584.614 900.487C536.362 901.028 488.514 891.448 445 870C444.147 869.585 443.295 869.17 442.416 868.743C409.194 852.453 378.057 827.911 355.152 798.719C352.606 795.503 349.936 792.412 347.25 789.312C338.042 778.631 329.194 767.668 320.645 756.453C318.702 753.907 316.737 751.38 314.762 748.859C309.28 741.863 303.843 734.845 298.589 727.675C297.41 726.065 296.225 724.46 295.036 722.859C292.345 719.235 289.716 715.604 287.238 711.832C282.686 705.102 278.632 700.687 270.283 699.052C267.86 698.66 265.432 698.331 263 698C258.749 697.349 254.501 696.677 250.253 696.004C248.914 695.792 247.575 695.583 246.235 695.375C200.868 688.326 161.129 671.629 126 642C124.963 641.138 123.925 640.276 122.887 639.414C87.2171 609.688 59.6593 572.643 41 530C40.7082 529.342 40.4163 528.684 40.1157 528.005C36.2957 519.326 33.0333 510.483 30 501.5C29.7041 500.631 29.4083 499.762 29.1035 498.867C22.8202 479.845 17.9699 460.354 13.2473 440.898C12.4383 437.566 11.623 434.235 10.8066 430.904C10.2652 428.688 9.7242 426.471 9.18356 424.254C8.95213 423.307 8.7207 422.361 8.48225 421.385C7.97378 419.288 7.47776 417.188 6.99057 415.085C6.23325 411.868 5.36591 408.689 4.48593 405.503C0.0160437 388.697 -0.819437 372.579 -0.608396 355.305C-0.570069 351.619 -0.567301 347.933 -0.560243 344.247C-0.541829 337.313 -0.492921 330.38 -0.432146 323.446C-0.364338 315.533 -0.331908 307.62 -0.301974 299.706C-0.239791 283.47 -0.134729 267.235 -3.20077e-05 251Z" fill="#E7EEF5"/>
<path d="M1601 709C1601.66 709.66 1602.32 710.32 1603 711C1602.09 712.073 1602.09 712.073 1601.16 713.168C1596.29 718.967 1591.55 724.831 1586.96 730.86C1579.24 740.956 1571.13 750.746 1562.88 760.416C1560.04 763.758 1557.25 767.144 1554.5 770.563C1550.06 776.008 1545.35 781.185 1540.56 786.32C1538.86 788.155 1537.16 790.001 1535.47 791.848C1523.7 804.643 1523.7 804.643 1517 810C1516.03 810.803 1515.07 811.606 1514.07 812.434C1486.48 835.071 1452.98 850.636 1419 861C1418.17 861.258 1417.35 861.515 1416.5 861.781C1404.89 865.383 1393.47 868.042 1381.43 869.665C1378.86 870.019 1376.31 870.409 1373.75 870.809C1372 871.081 1370.25 871.353 1368.5 871.625C1367.32 871.81 1367.32 871.81 1366.11 871.999C1356.29 873.486 1346.54 874.159 1336.61 874.203C1335.55 874.21 1334.49 874.217 1333.4 874.225C1298.97 874.402 1266.37 871.386 1232.5 865.438C1225.3 864.177 1218.08 862.946 1210.87 861.711C1208.27 861.264 1205.67 860.813 1203.07 860.36C1195.82 859.108 1188.59 857.912 1181.3 856.984C1176.66 856.391 1172.09 855.669 1167.5 854.769C1154.68 852.313 1141.78 850.236 1128.91 848.084C1126.65 847.708 1124.4 847.331 1122.15 846.954C1115.07 845.77 1107.99 844.587 1100.91 843.406C1092.79 842.051 1084.68 840.692 1076.56 839.33C1070.24 838.27 1063.92 837.213 1057.6 836.16C1053.85 835.533 1050.09 834.906 1046.34 834.274C1042.81 833.68 1039.28 833.091 1035.75 832.506C1033.86 832.191 1031.96 831.871 1030.07 831.551C1023.46 830.458 1016.94 829.68 1010.24 829.338C1009.5 829.226 1008.76 829.115 1008 829C1007.67 828.34 1007.34 827.68 1007 827C1008.59 826.682 1010.18 826.365 1011.77 826.047C1013.3 825.739 1013.3 825.739 1014.87 825.425C1017.14 824.971 1019.42 824.517 1021.69 824.063C1026.98 823.006 1032.26 821.948 1037.55 820.883C1038.4 820.712 1039.25 820.541 1040.13 820.364C1041.67 820.055 1043.21 819.744 1044.75 819.433C1050.21 818.335 1055.68 817.305 1061.16 816.282C1071.3 814.386 1081.43 812.444 1091.56 810.5C1092.68 810.287 1093.79 810.073 1094.94 809.853C1112.89 806.405 1130.83 802.854 1148.75 799.25C1166.77 795.627 1184.8 792.106 1202.88 788.769C1212.21 787.036 1221.53 785.237 1230.85 783.452C1233.33 782.976 1235.82 782.502 1238.3 782.027C1239.14 781.867 1239.98 781.706 1240.85 781.541C1245.66 780.625 1250.47 779.728 1255.29 778.848C1273.07 775.596 1290.78 772.033 1308.48 768.38C1323.27 765.334 1338.07 762.395 1352.91 759.613C1365.81 757.194 1378.7 754.692 1391.57 752.098C1392.38 751.934 1393.19 751.77 1394.03 751.601C1398.18 750.765 1402.33 749.928 1406.47 749.09C1431.03 744.13 1455.59 739.215 1480.26 734.846C1491.46 732.863 1502.55 730.679 1513.61 728.024C1519.23 726.68 1524.9 725.668 1530.59 724.676C1534.08 724.035 1534.08 724.035 1537.73 722.926C1540.99 722.003 1543.63 721.836 1547 722C1547 721.34 1547 720.68 1547 720C1546.01 719.67 1545.02 719.34 1544 719C1551.15 717.568 1558.31 716.145 1565.46 714.728C1567.89 714.245 1570.33 713.76 1572.76 713.273C1576.26 712.572 1579.76 711.879 1583.26 711.188C1584.34 710.969 1585.43 710.75 1586.54 710.525C1596.71 708.531 1596.71 708.531 1601 709Z" fill="#E7EEF5"/>
<path d="M9 265C14.8129 267.49 17.2303 272.48 20.4375 277.625C21.7859 279.738 23.1363 281.85 24.4883 283.961C24.8478 284.525 25.2073 285.088 25.5777 285.669C29.9988 292.592 34.562 299.42 39.125 306.25C39.5797 306.932 40.0343 307.613 40.5028 308.315C49.3194 321.53 58.2067 334.698 67.0988 347.862C76.0297 361.085 84.9112 374.34 93.75 387.625C101.991 400.01 110.281 412.358 118.668 424.645C123.467 431.676 128.233 438.728 133 445.781C142.975 460.538 152.972 475.279 163 490C163.974 491.429 163.974 491.429 164.967 492.888C173.628 505.603 182.304 518.309 191 531C191.453 531.661 191.905 532.322 192.372 533.003C198.901 542.534 205.489 552.024 212.093 561.504C215.956 567.053 219.803 572.611 223.625 578.188C234.25 593.682 245.069 609.041 256.082 624.262C256.62 625.005 257.158 625.748 257.712 626.514C258.824 628.051 259.937 629.588 261.05 631.124C264.195 635.473 267.3 639.846 270.371 644.248C277.285 654.148 284.577 663.737 291.936 673.311C295.303 677.697 298.651 682.099 302 686.5C303.327 688.241 304.654 689.982 305.98 691.723C308.715 695.312 311.446 698.903 314.176 702.496C324.907 716.617 335.794 730.573 347.004 744.316C349.4 747.256 351.769 750.215 354.125 753.188C361.354 762.239 368.9 770.992 376.738 779.52C378.68 781.649 380.567 783.809 382.438 786C390.207 794.898 398.71 802.72 408 810C408.962 810.779 409.923 811.557 410.914 812.359C452.774 845.635 506.147 864.39 559 870C559.849 870.094 560.698 870.187 561.573 870.283C572.52 871.307 583.516 871.258 594.502 871.295C596.834 871.307 599.167 871.327 601.5 871.357C615.602 871.537 629.441 870.977 643.448 869.387C644.598 869.259 644.598 869.259 645.771 869.127C664.022 867.064 682.083 864.005 700.172 860.855C704.957 860.025 709.744 859.209 714.531 858.391C715.521 858.222 716.511 858.054 717.531 857.879C719.561 857.533 721.592 857.186 723.622 856.84C726.73 856.309 729.837 855.778 732.944 855.245C755.462 851.392 778.002 847.672 800.544 843.96C806.263 843.017 811.981 842.074 817.7 841.13C826.031 839.756 834.362 838.381 842.693 837.008C870.325 832.452 897.956 827.887 925.586 823.32C926.274 823.207 926.962 823.093 927.671 822.976C1000.22 810.983 1072.77 798.925 1366.69 749.688C1367.55 749.541 1368.41 749.395 1369.3 749.245C1403.73 743.406 1438.16 737.529 1472.56 731.469C1473.76 731.257 1474.96 731.046 1476.2 730.828C1487.01 728.924 1497.82 727.016 1508.62 725.073C1512.22 724.425 1515.83 723.783 1519.44 723.141C1521.81 722.717 1524.18 722.285 1526.55 721.852C1533.44 720.617 1539.99 719.662 1547 720C1547 720.66 1547 721.32 1547 722C1531.39 725.652 1515.73 728.927 1500 732C1498.46 732.301 1496.93 732.602 1495.39 732.903C1480.56 735.809 1465.72 738.708 1450.88 741.566C1440.08 743.647 1429.28 745.736 1418.5 747.902C1417.66 748.07 1416.82 748.238 1415.96 748.411C1411.94 749.219 1407.92 750.03 1403.9 750.846C1393.58 752.93 1383.24 754.905 1372.89 756.85C1359.52 759.362 1346.17 761.931 1332.84 764.613C1332.1 764.763 1331.35 764.913 1330.59 765.067C1326.79 765.833 1322.98 766.6 1319.18 767.367C1290.08 773.243 1260.94 778.907 1231.76 784.354C1221.54 786.266 1211.33 788.25 1201.12 790.25C1200.28 790.415 1199.44 790.58 1198.57 790.75C1195.32 791.388 1192.06 792.027 1188.81 792.666C1181.27 794.145 1173.73 795.606 1166.19 797.062C1155.54 799.121 1144.89 801.182 1134.25 803.25C1133.52 803.391 1132.8 803.532 1132.05 803.677C1122.2 805.592 1112.35 807.52 1102.5 809.457C1098.08 810.326 1093.67 811.194 1089.25 812.062C1088.15 812.278 1087.05 812.495 1085.92 812.717C1071.47 815.557 1057 818.34 1042.52 821.028C1035.04 822.419 1027.58 823.866 1020.12 825.375C1009.04 827.617 997.927 829.757 986.812 831.875C985.917 832.046 985.021 832.217 984.098 832.392C970.23 835.032 956.35 837.593 942.463 840.128C932.225 842 922.023 843.981 911.845 846.157C903.609 847.907 895.341 849.465 887.062 851C877.737 852.73 868.421 854.49 859.125 856.375C847.931 858.639 836.718 860.799 825.5 862.938C824.589 863.111 823.679 863.285 822.74 863.464C813.67 865.192 804.598 866.909 795.508 868.531C794.849 868.649 794.19 868.767 793.511 868.888C791.549 869.238 789.587 869.588 787.625 869.938C773.998 872.369 760.451 875.14 746.898 877.954C730.719 881.307 714.494 884.336 698.23 887.25C688.364 889.019 678.513 890.828 668.688 892.812C667.707 893.01 666.727 893.208 665.718 893.412C661.742 894.221 657.771 895.046 653.805 895.898C633.977 900.079 614.373 900.405 594.211 900.426C591.012 900.43 587.813 900.45 584.614 900.487C536.362 901.028 488.514 891.448 445 870C444.147 869.585 443.295 869.17 442.417 868.743C409.194 852.453 378.057 827.911 355.152 798.719C352.606 795.503 349.936 792.412 347.25 789.312C338.042 778.631 329.194 767.668 320.645 756.453C318.702 753.907 316.737 751.38 314.762 748.859C308.043 740.284 301.471 731.624 295.042 722.828C291.594 718.123 288.069 713.501 284.438 708.938C272.465 693.877 261.831 677.905 251.312 661.812C249.441 658.957 247.568 656.103 245.695 653.249C244.484 651.403 243.274 649.557 242.064 647.711C238.556 642.358 235.024 637.022 231.465 631.703C227.981 626.496 224.569 621.251 221.25 615.938C220.231 614.315 219.211 612.692 218.191 611.07C217.671 610.242 217.15 609.413 216.614 608.56C213.823 604.133 211.003 599.724 208.188 595.312C201.354 584.591 194.613 573.813 187.887 563.023C186.021 560.034 184.152 557.048 182.281 554.062C173.79 540.508 165.381 526.904 157.012 513.273C155.021 510.035 153.027 506.798 151.031 503.562C142.004 488.924 133.054 474.24 124.141 459.532C120.95 454.268 117.755 449.006 114.559 443.744C113.504 442.006 112.448 440.268 111.393 438.529C107.753 432.533 104.112 426.537 100.469 420.543C96.309 413.697 92.153 406.85 88 400C87.5579 399.271 87.1157 398.543 86.6602 397.792C82.7476 391.338 78.9052 384.845 75.1055 378.324C73.6334 375.799 72.1607 373.274 70.6875 370.75C70.1297 369.794 70.1297 369.794 69.5606 368.819C65.1053 361.192 60.5836 353.623 55.8125 346.188C49.4803 336.319 43.6334 326.181 37.7612 316.034C29.7701 302.267 21.6367 288.59 13.1836 275.102C12.628 274.202 12.0724 273.302 11.5 272.375C10.773 271.211 10.773 271.211 10.0312 270.023C9 268 9 268 9 265Z" fill="#EDDC3C"/>
<path d="M1547 720C1547 720.66 1547 721.32 1547 722C1532.32 725.433 1517.61 728.569 1502.81 731.448C1500.28 731.946 1497.75 732.459 1495.21 732.98C1486.77 734.692 1478.46 736.363 1470 734C1470 733.34 1470 732.68 1470 732C1478.71 730.426 1487.42 728.861 1496.13 727.306C1500.18 726.584 1504.22 725.859 1508.27 725.127C1512.18 724.42 1516.09 723.72 1520 723.026C1521.48 722.761 1522.97 722.493 1524.46 722.222C1532.01 720.846 1539.29 719.64 1547 720Z" fill="#E5E22B"/>
<path d="M1547 720C1547 720.66 1547 721.32 1547 722C1543.48 722.817 1539.96 723.628 1536.44 724.437C1534.95 724.783 1534.95 724.783 1533.44 725.135C1524.68 727.141 1516.54 728.146 1507.56 728.062C1506.64 728.058 1505.72 728.053 1504.77 728.049C1502.51 728.037 1500.26 728.021 1498 728C1498 727.67 1498 727.34 1498 727C1503.53 725.993 1509.06 724.997 1514.6 724.009C1516.47 723.673 1518.35 723.333 1520.23 722.991C1522.94 722.497 1525.66 722.013 1528.37 721.531C1529.2 721.378 1530.03 721.225 1530.88 721.067C1536.33 720.113 1541.47 719.864 1547 720Z" fill="#F5E33F"/>
<path d="M9 265C14.0572 267.415 16.361 270.877 19.3125 275.438C19.7669 276.106 20.2213 276.774 20.6895 277.463C24 282.486 24 282.486 24 287C22.2539 286.891 22.2539 286.891 20 286C18.4741 283.926 17.1998 281.973 15.9375 279.75C15.5991 279.176 15.2607 278.603 14.9121 278.012C13.9317 276.347 12.9656 274.674 12 273C11.4238 272.098 10.8476 271.195 10.2539 270.266C9 268 9 268 9 265Z" fill="#F5E33F"/>
<path d="M1499.67 727.805C1500.56 727.811 1501.45 727.818 1502.37 727.824C1503.77 727.849 1503.77 727.849 1505.19 727.875C1506.13 727.884 1507.07 727.893 1508.04 727.902C1510.36 727.926 1512.68 727.959 1515 728C1515 728.33 1515 728.66 1515 729C1511.92 729.702 1508.84 730.384 1505.75 731.063C1504.88 731.262 1504 731.461 1503.11 731.666C1501.84 731.942 1501.84 731.942 1500.55 732.223C1499.77 732.395 1499 732.568 1498.2 732.746C1495.85 733.018 1494.24 732.716 1492 732C1492 731.34 1492 730.68 1492 730C1495.2 727.864 1496 727.758 1499.67 727.805Z" fill="#F5E33F"/>
<path d="M1470 732C1476.05 731.805 1476.05 731.805 1478 732C1478.66 732.66 1479.32 733.32 1480 734C1479.67 734.33 1479.34 734.66 1479 735C1477.47 734.911 1475.95 734.755 1474.44 734.562C1473.2 734.41 1473.2 734.41 1471.93 734.254C1471.3 734.17 1470.66 734.086 1470 734C1470 733.34 1470 732.68 1470 732Z" fill="#F5E33F"/>
</g>
<defs>
<clipPath id="clip0_30_283">
<rect width="1920" height="900" fill="white"/>
</clipPath>
</defs>
</svg>
