<svg xmlns="http://www.w3.org/2000/svg" xmlns:xlink="http://www.w3.org/1999/xlink" viewBox="0 0 168.57 114.68"><defs><style>.cls-1{fill:none;}.cls-2{clip-path:url(#clip-path);}.cls-3{fill:#231f20;}.cls-4{fill:#3e3e3d;}.cls-5{fill:#f7b519;}</style><clipPath id="clip-path" transform="translate(-13.59 -11.33)"><rect class="cls-1" width="201.63" height="142.57"/></clipPath></defs><g id="Layer_2" data-name="Layer 2"><g id="Layer_1-2" data-name="Layer 1"><g class="cls-2"><polygon class="cls-3" points="80.27 114.53 78.89 114.53 78.89 108.5 74.88 108.5 74.88 114.53 73.5 114.53 73.5 101.49 74.88 101.49 74.88 107.27 78.89 107.27 78.89 101.49 80.27 101.49 80.27 114.53"/><g class="cls-2"><path class="cls-3" d="M95.88,122.06v-5.44a4.11,4.11,0,0,1,1-3,3.83,3.83,0,0,1,5.14,0,4.11,4.11,0,0,1,1,3v5.44a4.06,4.06,0,0,1-1,3,3.82,3.82,0,0,1-5.13,0,4.1,4.1,0,0,1-1-3m5.68,0v-5.33a3.44,3.44,0,0,0-.55-2.14,1.88,1.88,0,0,0-1.58-.71,1.94,1.94,0,0,0-1.64.7,3.49,3.49,0,0,0-.54,2.15v5.33c0,1.79.73,2.68,2.18,2.68a1.91,1.91,0,0,0,1.57-.67,3.05,3.05,0,0,0,.56-2" transform="translate(-13.59 -11.33)"/><polygon class="cls-3" points="100.4 114.53 99.02 114.53 99.02 104.51 96.34 111.5 95.44 111.5 92.75 104.57 92.75 114.53 91.37 114.53 91.37 101.49 92.75 101.49 95.91 109.54 99.02 101.49 100.4 101.49 100.4 114.53"/><polygon class="cls-3" points="103.94 107.27 107.75 107.27 107.75 108.52 103.94 108.52 103.94 113.3 108.37 113.3 108.37 114.53 102.58 114.53 102.58 101.49 108.37 101.49 108.37 102.72 103.94 102.72 103.94 107.27"/><path class="cls-3" d="M126.74,122.06v-5.44a4.11,4.11,0,0,1,1-3,3.83,3.83,0,0,1,5.14,0,4.11,4.11,0,0,1,1,3v5.44a4.06,4.06,0,0,1-1,3,3.82,3.82,0,0,1-5.13,0,4.1,4.1,0,0,1-1-3m5.69,0v-5.33a3.51,3.51,0,0,0-.55-2.14,2.19,2.19,0,0,0-3.22,0,3.49,3.49,0,0,0-.54,2.15v5.33c0,1.79.72,2.68,2.17,2.68a1.93,1.93,0,0,0,1.58-.67,3.11,3.11,0,0,0,.56-2" transform="translate(-13.59 -11.33)"/><polygon class="cls-3" points="123.62 107.33 127.43 107.33 127.43 108.58 123.62 108.58 123.62 114.53 122.24 114.53 122.24 101.49 128.04 101.49 128.04 102.72 123.62 102.72 123.62 107.33"/><path class="cls-3" d="M153.17,116.62q0,3.72-3.35,3.72h-2v5.52h-1.38v-13h3.38a3.12,3.12,0,0,1,2.54,1,4.28,4.28,0,0,1,.81,2.84m-1.36,0a3.08,3.08,0,0,0-.5-2,1.91,1.91,0,0,0-1.56-.61h-1.93v5.06h1.93a2,2,0,0,0,1.56-.58,3,3,0,0,0,.5-1.91" transform="translate(-13.59 -11.33)"/><path class="cls-3" d="M156,120.15v5.71h-1.38v-13h3.44a3.16,3.16,0,0,1,2.5.91,4.17,4.17,0,0,1,.78,2.78c0,1.86-.64,3-1.92,3.43l2.3,5.92h-1.47l-2.16-5.71Zm2-1.21a1.71,1.71,0,0,0,1.46-.61,3,3,0,0,0,.46-1.82,3.08,3.08,0,0,0-.44-1.84,1.71,1.71,0,0,0-1.48-.62h-2v4.89Z" transform="translate(-13.59 -11.33)"/><rect class="cls-3" x="150.06" y="101.49" width="1.36" height="13.03"/><path class="cls-3" d="M170.68,112.82a3.42,3.42,0,0,1,2.55,1,4.07,4.07,0,0,1,1,3v5.14a4.12,4.12,0,0,1-1,3,3.42,3.42,0,0,1-2.55,1H167.3v-13ZM172.25,124a3.08,3.08,0,0,0,.56-2v-5a3.44,3.44,0,0,0-.55-2.14,1.88,1.88,0,0,0-1.58-.71h-2v10.58h2a1.92,1.92,0,0,0,1.57-.68" transform="translate(-13.59 -11.33)"/><polygon class="cls-3" points="163.98 107.27 167.8 107.27 167.8 108.52 163.98 108.52 163.98 113.3 168.42 113.3 168.42 114.53 162.62 114.53 162.62 101.49 168.42 101.49 168.42 102.72 163.98 102.72 163.98 107.27"/><path class="cls-4" d="M96.58,59.15V93.42a1.69,1.69,0,0,1-1.36,2l.07.34h5.56c4.68-.07,6.17-3.39,6.17-7.66V66.75c0-4.14-1.49-7.53-6.17-7.6Zm4.27-3.86h0c7.6,0,12.75,3.18,12.75,11.46V88.06c0,7.87-5.35,11.73-12.75,11.73H87.15v-1.9L89.93,96V59l-2.38-1.9V55.29Z" transform="translate(-13.59 -11.33)"/><path class="cls-4" d="M127,59.22V77.81H131c4.2,0,5.9-2.31,5.9-6.44V65.66c0-4.06-1.49-6.44-5.83-6.44Zm6.17,26.6h0c-1.22-3.46-2.37-4.35-6.1-4.35V96l2.78,1.9v1.9H117.74v-1.9l2.78-1.9V58.81l-2.3-1.69V55.29h12.89c6.78,0,12.34,2.64,12.34,10.37v5.71c0,5.49-3,8.54-7.12,9.36a7,7,0,0,1,3.46,4.14l2.92,8.21c.68,1.76,1.83,4.2,3.86,3.73v2.51a12.15,12.15,0,0,1-4.68.81c-4,0-4.34-2.85-5.63-6.24Z" transform="translate(-13.59 -11.33)"/><path class="cls-4" d="M160.07,84.12h10l-4.95-21.3H165ZM157.15,96.6h0l2.31,1.16v2h-8.68v-2l2.3-1.16C156.2,83.44,159.73,68.11,163,55h6.51L179.75,96.4,182,97.76v2H170.72V98.1L173,96.67l-2.11-8.89H159.26Z" transform="translate(-13.59 -11.33)"/><rect class="cls-5" x="73.48" y="94.32" width="95.09" height="1.22"/><path class="cls-5" d="M83.91,11.33s-46.49,21.19-56,47.27c-9,24.67,15.57,43.88,33.51,47.24,0,0-35.52-20.75-7.29-47.24,0,0,13.23-10.78,22.76-16.33,9.36-6.72,8.39-25.32,7.06-30.94" transform="translate(-13.59 -11.33)"/><path class="cls-5" d="M37.64,38.61s-23.78,17.55-24,35.7,26.37,26,34.76,29.26c0,0-28.52-15.1-25.13-38.13,0,0-.07-11.57,14.42-26.83" transform="translate(-13.59 -11.33)"/><path class="cls-5" d="M81.46,41.66s-24.89,14.08-31.54,25c-9.05,12.5-3.32,34.58,24.15,40.23,0,0-21.64-11.76-15.6-26.55,0,0,1.13-4.06,6.29-9.59,2.65-2.15,7.87-6.52,10.14-8.43l.18-.12c8.89-6.81,7.43-17.87,6.38-20.58" transform="translate(-13.59 -11.33)"/></g></g></g></g></svg>