<svg width="56" height="56" viewBox="0 0 56 56" fill="none" xmlns="http://www.w3.org/2000/svg">
<path d="M39.2241 36.7825L34.1936 35.2551V32.1415C35.1431 31.4135 35.8603 30.4167 36.2383 29.2705L36.952 27.1061C38.0342 26.7876 38.8692 25.8706 39.0593 24.7299L39.4278 22.5172C39.6161 21.3895 39.2231 20.257 38.3768 19.488L38.338 19.4523C38.4759 18.7827 38.5462 18.1023 38.5518 17.4202H41.0434C41.72 17.4202 42.2684 16.8717 42.2684 16.1952C42.2684 15.5187 41.72 14.9702 41.0434 14.9702H39.6368V13.5051C39.6368 8.7591 36.3212 4.7754 31.8853 3.74185V2.8371C31.8853 2.16055 31.3369 1.6121 30.6603 1.6121H25.2434C24.5668 1.6121 24.0184 2.16055 24.0184 2.8371V3.7422C19.5825 4.77575 16.267 8.7591 16.267 13.5055V14.9705H14.8603C14.1837 14.9705 13.6353 15.519 13.6353 16.1955C13.6353 16.8721 14.1837 17.4205 14.8603 17.4205H17.5196C17.5252 18.102 17.5955 18.7827 17.7334 19.4523L17.6942 19.488C16.8479 20.257 16.4545 21.3895 16.6428 22.5176L17.0114 24.7303C17.2014 25.8709 18.0365 26.7883 19.1187 27.1068L19.832 29.2708C20.2002 30.388 20.8925 31.3624 21.8067 32.0855V35.2555L16.7762 36.7829C11.9577 38.2462 8.72025 42.6129 8.72025 47.6487V53.1636C8.72025 53.8401 9.2687 54.3886 9.94525 54.3886H46.0555C46.732 54.3886 47.2805 53.8401 47.2805 53.1636V47.6487C47.2801 42.6125 44.0426 38.2455 39.2241 36.7825ZM19.1089 47.6157C19.1089 48.2289 18.6102 48.7277 17.9974 48.7277C17.3845 48.7277 16.8857 48.2289 16.8857 47.6157C16.8857 47.0029 17.3845 46.5041 17.9974 46.5041C18.6102 46.5041 19.1089 47.0029 19.1089 47.6157ZM17.2396 51.9379V50.3724C17.4814 50.4389 17.7345 50.4773 17.9974 50.4773C19.3071 50.4773 20.4113 49.5918 20.7497 48.3889H34.8302C35.1687 49.5918 36.2733 50.4773 37.5826 50.4773C38.0026 50.4773 38.4006 50.3843 38.7604 50.2208V51.9379H17.2396ZM38.6946 47.6157C38.6946 48.2289 38.1958 48.7277 37.583 48.7277C36.9701 48.7277 36.4714 48.2289 36.4714 47.6157C36.4714 47.0029 36.9701 46.5041 37.583 46.5041C38.1958 46.5041 38.6946 47.0029 38.6946 47.6157ZM38.7604 39.2129V45.0107C38.4006 44.8476 38.0026 44.7541 37.5826 44.7541C37.1626 44.7541 36.7647 44.8473 36.4052 45.0107V38.4867L38.5123 39.1265C38.5966 39.152 38.6771 39.1849 38.7604 39.2129ZM34.6552 37.9554V46.6393H28.847V40.5807L31.886 42.6793C32.0348 42.7822 32.2084 42.8344 32.3834 42.8344C32.508 42.8344 32.6333 42.8078 32.7505 42.7539C33.0316 42.624 33.223 42.3552 33.2538 42.0472L33.6966 37.6638L34.6552 37.9554ZM26.3498 39.0089L24.3383 40.398L24.0699 37.7415L26.3498 39.0089ZM24.2564 35.8428V33.6192L24.5402 33.7893C25.5171 34.3749 26.635 34.6846 27.7735 34.6846H28.2971C29.4357 34.6846 30.5536 34.3749 31.5301 33.7893L31.7436 33.6612V35.8428L28 37.9235L24.2564 35.8428ZM31.9298 37.7415L31.6613 40.398L29.6499 39.0089L31.9298 37.7415ZM18.717 13.5055C18.717 10.1199 20.9489 7.24675 24.0184 6.2783V6.80365C24.0184 7.4802 24.5668 8.02865 25.2434 8.02865C25.9199 8.02865 26.4684 7.4802 26.4684 6.80365V4.0621H29.4353V6.80365C29.4353 7.4802 29.9838 8.02865 30.6603 8.02865C31.3369 8.02865 31.8853 7.4802 31.8853 6.80365V6.2783C34.9548 7.24675 37.1868 10.1199 37.1868 13.5055V14.9705H18.717V13.5055ZM20.0739 24.7926L19.9013 24.774C19.6619 24.7485 19.467 24.5648 19.4274 24.3275L19.0589 22.1148C19.0081 21.812 19.1138 21.5079 19.341 21.3014L19.9185 20.7767C20.2625 20.4641 20.4001 19.9836 20.2737 19.5363C20.0781 18.8447 19.9776 18.1331 19.9699 17.4205H36.1007C36.093 18.1335 35.9926 18.8451 35.7969 19.5367C35.6702 19.984 35.8078 20.4641 36.1518 20.7767L36.7287 21.301C36.9558 21.5079 37.0615 21.812 37.0111 22.1148L36.6425 24.3275C36.603 24.5651 36.408 24.7485 36.1683 24.774L35.9989 24.7922C35.4543 24.8493 34.9923 25.2224 34.8225 25.7411L33.9115 28.5036C33.6462 29.3083 33.1002 29.9911 32.3739 30.4265L30.2701 31.6879C29.674 32.0453 28.9919 32.2346 28.2971 32.2346H27.7735C27.0788 32.2346 26.3963 32.0456 25.8002 31.6879L23.6964 30.4265C22.9702 29.9911 22.4238 29.3083 22.1585 28.5036L21.2481 25.7428C21.078 25.2224 20.6157 24.8493 20.0739 24.7926ZM22.3034 37.6642L22.7461 42.0476C22.7773 42.3556 22.9688 42.624 23.2495 42.7542C23.3664 42.8081 23.4916 42.8347 23.6166 42.8347C23.7916 42.8347 23.9652 42.7826 24.114 42.6797L27.0966 40.6199V46.6396H20.6836C20.6559 46.5636 20.6255 46.4894 20.5919 46.4166V38.1843L22.3034 37.6642ZM18.8415 38.7152V44.8815C18.5745 44.7989 18.291 44.7541 17.997 44.7541C17.7345 44.7541 17.4811 44.7927 17.2393 44.8592V39.2129C17.3226 39.1849 17.403 39.152 17.4874 39.1265L18.8415 38.7152ZM11.1699 47.6479C11.1699 44.444 12.8411 41.5859 15.4896 40.0081V46.2392C15.2642 46.648 15.1354 47.1167 15.1354 47.6154C15.1354 48.1142 15.2642 48.5832 15.4896 48.992V51.9379H11.1699V47.6479ZM44.8301 51.9379H40.5104V47.5139V40.0085C43.1589 41.5863 44.8301 44.4444 44.8301 47.6483V51.9379Z" fill="#D8A353"/>
<path d="M29.2432 10.2123H28.1512L28.8799 9.11925C29.0024 8.93515 29.0448 8.7045 28.9958 8.48715C28.9499 8.2824 28.8271 8.1074 28.6734 8.0157C28.4893 7.8925 28.2586 7.8505 28.0409 7.8995C27.8362 7.9457 27.6612 8.0682 27.5702 8.2208L26.0166 10.534C25.8356 10.7755 25.8094 11.0968 25.9473 11.3733C26.0855 11.6498 26.3588 11.8213 26.6605 11.8213H27.7525L27.0238 12.9143C26.7869 13.2696 26.8636 13.726 27.2059 14.0004L27.2681 14.0399C27.3196 14.0658 27.5016 14.1494 27.6791 14.1494C27.9605 14.1494 28.2128 14.0011 28.3437 13.7606L29.8868 11.4632C30.0678 11.2221 30.0944 10.9004 29.9561 10.6239C29.8252 10.3625 29.5656 10.2123 29.2432 10.2123Z" fill="#D8A353"/>
</svg>
