<svg width="72" height="72" viewBox="0 0 72 72" fill="none" xmlns="http://www.w3.org/2000/svg">
<g filter="url(#filter0_d_28_258)">
<path d="M12.9022 6.41602H10.3358V8.82203H12.9022V6.41602Z" fill="#D8A353"/>
<path d="M61.6641 55.178H59.0977V57.584H61.6641V55.178Z" fill="#D8A353"/>
<path d="M50.1153 19.2482C46.1309 19.2482 42.254 18.1101 38.9025 15.9559C38.3034 15.5718 37.7155 15.1499 37.1557 14.7016L36.7515 14.3784C36.7499 14.3768 36.7475 14.3752 36.7459 14.3744C36.7338 14.3648 36.721 14.3551 36.7082 14.3463C36.6977 14.3391 36.6873 14.3311 36.6769 14.3239C36.6649 14.3158 36.6528 14.3086 36.6408 14.3006C36.6288 14.2926 36.6159 14.2846 36.6039 14.2774C36.5927 14.2709 36.5814 14.2653 36.5702 14.2589C36.5558 14.2517 36.5422 14.2437 36.5277 14.2365C36.5253 14.2356 36.5237 14.234 36.5213 14.2332C36.5125 14.2292 36.5029 14.2252 36.494 14.2212C36.4796 14.2148 36.4652 14.2076 36.4499 14.202C36.4379 14.1972 36.4259 14.1931 36.413 14.1883C36.3986 14.1835 36.385 14.1779 36.3705 14.1731C36.3569 14.1691 36.3441 14.1651 36.3304 14.1611C36.3168 14.1571 36.3032 14.153 36.2903 14.1498C36.2759 14.1466 36.2623 14.1434 36.2478 14.1402C36.235 14.1378 36.2213 14.1346 36.2085 14.1322C36.1941 14.1298 36.1796 14.1274 36.1652 14.1258C36.1524 14.1242 36.1387 14.1218 36.1259 14.121C36.1115 14.1194 36.097 14.1186 36.0826 14.1178C36.069 14.117 36.0553 14.1161 36.0425 14.1153C36.0289 14.1145 36.0144 14.1153 36.0008 14.1153C35.9872 14.1153 35.9727 14.1153 35.9591 14.1153C35.9455 14.1161 35.9318 14.117 35.919 14.1178C35.9046 14.1186 35.8901 14.1194 35.8757 14.121C35.8629 14.1226 35.8492 14.1242 35.8364 14.1258C35.822 14.1282 35.8075 14.1298 35.7931 14.1322C35.7802 14.1346 35.7666 14.137 35.7538 14.1402C35.7393 14.1434 35.7257 14.1458 35.7113 14.1498C35.6976 14.153 35.6848 14.1571 35.6712 14.1611C35.6575 14.1651 35.6447 14.1683 35.6311 14.1731C35.6166 14.1779 35.603 14.1827 35.5886 14.1883C35.5765 14.1931 35.5637 14.1972 35.5517 14.202C35.5364 14.2076 35.522 14.2148 35.5076 14.2212C35.4987 14.2252 35.4891 14.2284 35.4803 14.2332C35.4779 14.234 35.4763 14.2356 35.4739 14.2365C35.4594 14.2437 35.4458 14.2509 35.4314 14.2589C35.4201 14.2645 35.4089 14.2709 35.3985 14.2766C35.3857 14.2838 35.3736 14.2918 35.3616 14.2998C35.3496 14.307 35.3375 14.315 35.3255 14.3223C35.3151 14.3295 35.3047 14.3375 35.2942 14.3447C35.2814 14.3543 35.2686 14.3632 35.2565 14.3728C35.2549 14.3744 35.2525 14.3752 35.2509 14.3768L34.655 14.8524C34.315 15.1171 33.9749 15.3665 33.6421 15.5942C32.9869 16.045 32.2963 16.4636 31.5906 16.8374C30.6779 17.3202 29.7243 17.7372 28.7539 18.0773C28.2085 18.2689 27.6407 18.4414 27.0681 18.5897C25.3742 19.0268 23.6315 19.2482 21.8847 19.2482C21.2206 19.2482 20.6817 19.7871 20.6817 20.4512V32.0001V32.0121C20.6817 33.4132 20.8622 34.8079 21.2166 36.1544C21.5102 37.2756 21.9272 38.3704 22.4549 39.4082C22.8624 40.2094 23.3379 40.9793 23.8681 41.6963C24.6212 42.7173 25.4929 43.65 26.4593 44.4672C27.2982 45.177 28.2149 45.805 29.1838 46.3343L35.4242 49.738C35.4298 49.7412 35.4362 49.7436 35.4418 49.7468C35.4522 49.7524 35.4635 49.7581 35.4747 49.7637C35.4875 49.7701 35.5003 49.7757 35.5132 49.7813C35.5244 49.7861 35.5348 49.7909 35.5461 49.7957C35.5597 49.8014 35.5725 49.8062 35.5862 49.811C35.5974 49.815 35.6078 49.819 35.619 49.823C35.6327 49.8278 35.6471 49.8318 35.6607 49.8358C35.672 49.8391 35.6824 49.8423 35.6936 49.8455C35.7081 49.8495 35.7225 49.8527 35.7377 49.8559C35.7482 49.8583 35.7586 49.8607 35.769 49.8631C35.7843 49.8663 35.8003 49.8687 35.8155 49.8711C35.8252 49.8727 35.8356 49.8743 35.8452 49.876C35.8629 49.8784 35.8797 49.88 35.8973 49.8808C35.9054 49.8816 35.9142 49.8824 35.9222 49.8832C35.9479 49.8848 35.9735 49.8856 35.9992 49.8856C36.0249 49.8856 36.0505 49.8848 36.0762 49.8832C36.085 49.8824 36.093 49.8816 36.1019 49.8808C36.1187 49.8792 36.1363 49.8776 36.1532 49.876C36.1636 49.8743 36.1732 49.8727 36.1837 49.8711C36.1989 49.8687 36.2141 49.8663 36.2294 49.8639C36.2406 49.8615 36.251 49.8591 36.2623 49.8567C36.2767 49.8535 36.2903 49.8503 36.3048 49.8463C36.316 49.8431 36.3272 49.8399 36.3392 49.8367C36.3529 49.8326 36.3665 49.8286 36.3793 49.8246C36.3906 49.8206 36.4026 49.8166 36.4138 49.8126C36.4267 49.8078 36.4395 49.803 36.4523 49.7974C36.4636 49.7925 36.4756 49.7877 36.4868 49.7829C36.4996 49.7773 36.5125 49.7717 36.5245 49.7653C36.5357 49.7597 36.547 49.754 36.5574 49.7484C36.563 49.7452 36.5694 49.7428 36.575 49.7396L42.8154 46.3359C44.9207 45.1882 46.7092 43.6275 48.1319 41.6979C49.3638 40.0265 50.2556 38.1619 50.7818 36.1577C51.137 34.8087 51.3167 33.414 51.3167 32.0137V32.0001V20.4512C51.3183 19.7871 50.7793 19.2482 50.1153 19.2482ZM23.0877 21.6229C24.6324 21.5427 26.1674 21.3069 27.6664 20.9204C28.3056 20.7551 28.9391 20.5627 29.5479 20.3485C30.6298 19.9692 31.6948 19.504 32.7134 18.9651C33.428 18.5865 34.1281 18.1671 34.797 17.718V30.7971H23.0877V21.6229ZM48.4559 35.5441C48.0068 37.2532 47.2465 38.8428 46.1967 40.2687C44.9841 41.9136 43.4586 43.2434 41.6646 44.2218L37.203 46.6551V33.2031H48.8609C48.7936 33.9938 48.658 34.7774 48.4559 35.5441Z" fill="#D8A353"/>
<path d="M68 32C68 28.6596 65.4015 25.9168 62.1197 25.6826C60.9656 20.8874 58.5163 16.5205 54.9979 13.0021C51.4795 9.48371 47.1126 7.03519 42.3174 5.8803C42.0832 2.5985 39.3404 0 36 0C32.6596 0 29.9168 2.5985 29.6826 5.8803C24.8874 7.03439 20.5205 9.48371 17.0021 13.0021C13.4837 16.5205 11.0344 20.8874 9.8803 25.6826C6.5985 25.9168 4 28.6596 4 32C4 35.3404 6.5985 38.0832 9.8803 38.3174C11.0344 43.1126 13.4837 47.4795 17.0021 50.9979C20.5205 54.5163 24.8874 56.9656 29.6826 58.1197C29.9168 61.4015 32.6596 64 36 64C39.3404 64 42.0832 61.4015 42.3174 58.1197C47.1126 56.9656 51.4795 54.5163 54.9979 50.9979C58.5163 47.4795 60.9656 43.1126 62.1197 38.3174C65.4015 38.0832 68 35.3404 68 32ZM36 2.40602C38.167 2.40602 39.9298 4.16882 39.9298 6.33584C39.9298 6.46897 39.9234 6.5997 39.9106 6.72642C39.7125 8.74426 38.0315 10.2657 36 10.2657C35.8099 10.2657 35.6223 10.252 35.4386 10.2264C33.6662 9.97614 32.2683 8.55499 32.0886 6.72401C32.0758 6.5997 32.0702 6.46897 32.0702 6.33584C32.0702 4.16882 33.833 2.40602 36 2.40602ZM6.40602 32C6.40602 29.833 8.16882 28.0702 10.3358 28.0702C10.469 28.0702 10.5997 28.0766 10.7264 28.0894C12.7443 28.2875 14.2657 29.9685 14.2657 32C14.2657 32.1267 14.26 32.2526 14.248 32.3761C14.2416 32.4467 14.232 32.5173 14.2224 32.5863C13.9617 34.3467 12.5462 35.7317 10.724 35.9106C10.5997 35.9234 10.469 35.929 10.3358 35.929C8.16882 35.9298 6.40602 34.167 6.40602 32ZM36 61.594C33.833 61.594 32.0702 59.8312 32.0702 57.6642C32.0702 57.5366 32.0766 57.4043 32.0894 57.2736C32.2883 55.2557 33.9693 53.7343 36 53.7343C36.0634 53.7343 36.1267 53.7359 36.1893 53.7391C38.1341 53.8306 39.7173 55.3183 39.9106 57.2728C39.9234 57.4059 39.9298 57.5374 39.9298 57.665C39.9298 59.8312 38.167 61.594 36 61.594ZM42.0295 55.7129C42.0231 55.6928 42.0158 55.6728 42.0086 55.6519C42.0014 55.6295 41.9934 55.607 41.9854 55.5846C41.9613 55.5148 41.9356 55.445 41.9092 55.3768C41.9044 55.3648 41.9004 55.352 41.8955 55.34C41.8643 55.2606 41.8314 55.182 41.7969 55.1042C41.7881 55.0841 41.7784 55.0641 41.7696 55.044C41.7416 54.9823 41.7127 54.9205 41.6822 54.8603C41.6726 54.8411 41.663 54.8211 41.6533 54.8018C41.6148 54.7256 41.5747 54.651 41.5338 54.5764C41.5266 54.5636 41.5186 54.5508 41.5114 54.5379C41.4761 54.4754 41.4392 54.4136 41.4015 54.3519C41.3887 54.331 41.3758 54.3102 41.363 54.2901C41.3213 54.2244 41.2788 54.1594 41.2355 54.0952C41.2307 54.088 41.2259 54.0808 41.2211 54.0736C41.1729 54.003 41.1224 53.934 41.0711 53.8651C41.0566 53.8466 41.0422 53.8274 41.0286 53.8089C40.9869 53.7544 40.9444 53.7006 40.9011 53.6477C40.8882 53.6317 40.8754 53.6156 40.8618 53.6004C40.8064 53.5346 40.7503 53.4697 40.6925 53.4063C40.6805 53.3927 40.6677 53.3798 40.6548 53.3662C40.6067 53.3149 40.5586 53.2636 40.5089 53.213C40.492 53.1962 40.4752 53.1785 40.4575 53.1617C40.3958 53.0999 40.3324 53.0398 40.2683 52.9804C39.0981 51.9154 37.5832 51.3283 36 51.3283C34.4168 51.3283 32.9019 51.9154 31.7325 52.9804C31.6676 53.0398 31.605 53.0999 31.5433 53.1617C31.5264 53.1785 31.5088 53.1962 31.4919 53.213C31.4422 53.2636 31.3933 53.3141 31.3452 53.3662C31.3331 53.3798 31.3203 53.3927 31.3083 53.4063C31.2505 53.4697 31.1944 53.5346 31.139 53.6004C31.1262 53.6156 31.1134 53.6317 31.1006 53.6469C31.0564 53.7006 31.0139 53.7544 30.9714 53.8089C30.9578 53.8274 30.9434 53.845 30.9297 53.8635C30.8776 53.9324 30.8271 54.0022 30.7781 54.0728C30.7741 54.0784 30.7709 54.084 30.7669 54.0896C30.722 54.1562 30.6779 54.2228 30.6354 54.2909C30.6234 54.3102 30.6113 54.3294 30.5993 54.3487C30.56 54.4128 30.5215 54.4778 30.4838 54.5436C30.4782 54.5532 30.4726 54.5636 30.467 54.5732C30.4245 54.6494 30.3836 54.7264 30.3443 54.8042C30.3362 54.8203 30.3282 54.8363 30.3202 54.8531C30.2881 54.9189 30.256 54.9847 30.2264 55.0512C30.2191 55.0673 30.2119 55.0833 30.2047 55.0993C30.1686 55.1804 30.1341 55.2622 30.1021 55.3448C30.0996 55.3504 30.098 55.356 30.0956 55.3616C30.066 55.4378 30.0379 55.5156 30.0106 55.5934C30.005 55.611 29.9986 55.6279 29.993 55.6455C29.9858 55.668 29.9769 55.6904 29.9697 55.7129C21.2599 53.5138 14.4862 46.7409 12.2871 38.0295C12.3072 38.0231 12.3264 38.0158 12.3465 38.0094C12.3697 38.0014 12.393 37.9934 12.4162 37.9854C12.4852 37.9613 12.5534 37.9364 12.6216 37.91C12.6344 37.9052 12.648 37.9004 12.6609 37.8955C12.7403 37.8643 12.818 37.8314 12.8958 37.7969C12.9167 37.7881 12.9367 37.7784 12.9568 37.7688C13.0185 37.7408 13.0795 37.7119 13.1396 37.6822C13.1597 37.6726 13.1789 37.663 13.199 37.6533C13.2752 37.6148 13.3498 37.5755 13.4244 37.5338C13.4372 37.5266 13.45 37.5186 13.4629 37.5114C13.5254 37.4761 13.588 37.4392 13.6489 37.4015C13.6698 37.3887 13.6898 37.3758 13.7107 37.363C13.7764 37.3213 13.8422 37.2788 13.9064 37.2347C13.9136 37.2299 13.92 37.2259 13.9272 37.2211C13.9978 37.1721 14.0668 37.1216 14.1357 37.0703C14.1542 37.0566 14.1726 37.0422 14.1911 37.0278C14.2456 36.9861 14.2993 36.9428 14.3531 36.8995C14.3691 36.8866 14.3844 36.8738 14.4004 36.861C14.4662 36.8056 14.5311 36.7495 14.5945 36.6917C14.6081 36.6797 14.621 36.6669 14.6346 36.6548C14.6867 36.6067 14.7372 36.5586 14.7878 36.5089C14.8046 36.492 14.8223 36.4752 14.8391 36.4575C14.9 36.3958 14.961 36.3324 15.0204 36.2683C16.0846 35.0989 16.6717 33.5832 16.6717 32C16.6717 31.7033 16.6508 31.4089 16.6107 31.1186C16.4351 29.8611 15.8849 28.6821 15.0195 27.7325C15.0187 27.7317 15.0179 27.7309 15.0171 27.7293C14.9594 27.666 14.9001 27.6042 14.8399 27.5433C14.8223 27.5256 14.8046 27.508 14.787 27.4903C14.7372 27.4414 14.6867 27.3933 14.6362 27.346C14.6226 27.3331 14.6081 27.3195 14.5945 27.3067C14.5311 27.2489 14.467 27.1936 14.402 27.1382C14.3852 27.1246 14.3691 27.111 14.3523 27.0973C14.3002 27.0548 14.2472 27.0131 14.1943 26.9714C14.175 26.9562 14.1558 26.9418 14.1357 26.9265C14.0676 26.8752 13.9994 26.8255 13.9296 26.7773C13.9208 26.7709 13.9112 26.7653 13.9024 26.7589C13.8406 26.7164 13.778 26.6755 13.7147 26.6362C13.6922 26.6226 13.6706 26.6081 13.6481 26.5945C13.5896 26.5584 13.531 26.5239 13.4717 26.4902C13.4556 26.4814 13.4396 26.4718 13.4236 26.463C13.3514 26.4229 13.2776 26.3836 13.2038 26.3459C13.1814 26.3346 13.1581 26.3234 13.1356 26.3122C13.0795 26.2849 13.0226 26.2576 12.9664 26.232C12.9424 26.2208 12.9183 26.2095 12.8942 26.1991C12.8188 26.1662 12.7435 26.1341 12.6673 26.1037C12.648 26.0964 12.6296 26.0892 12.6103 26.082C12.5494 26.0587 12.4884 26.0363 12.4267 26.0146C12.3986 26.005 12.3713 25.9954 12.3433 25.9866C12.3256 25.981 12.308 25.9745 12.2903 25.9681C14.4862 17.2591 21.2591 10.4862 29.9705 8.28712C29.9769 8.30717 29.9842 8.32722 29.9906 8.34727C29.9978 8.36972 30.0058 8.39298 30.0138 8.41544C30.0379 8.48441 30.0628 8.55338 30.0892 8.62236C30.094 8.63519 30.0988 8.64802 30.1037 8.66005C30.1349 8.73945 30.1678 8.81804 30.2023 8.89584C30.2111 8.91589 30.2208 8.93594 30.2296 8.95599C30.2576 9.01774 30.2865 9.0787 30.3162 9.13965C30.3258 9.1589 30.3354 9.17895 30.3451 9.1982C30.3836 9.27439 30.4229 9.34897 30.4646 9.42356C30.4718 9.43639 30.4798 9.44922 30.487 9.46205C30.5223 9.52461 30.5592 9.58637 30.5969 9.64812C30.6097 9.66897 30.6226 9.68982 30.6354 9.71068C30.6771 9.77644 30.7188 9.8414 30.7629 9.90556C30.7677 9.91278 30.7725 9.92 30.7773 9.92802C30.8255 9.9986 30.876 10.0676 30.9273 10.1357C30.9418 10.155 30.9562 10.1734 30.9706 10.1919C31.0123 10.2456 31.0548 10.2993 31.0981 10.3523C31.111 10.3683 31.1238 10.3844 31.1374 10.4004C31.192 10.4662 31.2489 10.5303 31.3059 10.5937C31.3179 10.6073 31.3307 10.621 31.3436 10.6338C31.3909 10.6851 31.4398 10.7364 31.4895 10.7862C31.5064 10.8038 31.524 10.8207 31.5409 10.8375C31.6026 10.8984 31.666 10.9594 31.7301 11.0187C32.9011 12.0846 34.4168 12.6717 36 12.6717C36.2967 12.6717 36.5911 12.6508 36.8814 12.6107C38.1389 12.4351 39.3179 11.8849 40.2675 11.0195C40.3324 10.9602 40.395 10.9001 40.4567 10.8383C40.4736 10.8215 40.4912 10.8038 40.5081 10.787C40.5578 10.7364 40.6067 10.6859 40.6548 10.6338C40.6669 10.6202 40.6797 10.6073 40.6917 10.5937C40.7495 10.5303 40.8056 10.4654 40.861 10.3996C40.8746 10.3836 40.8874 10.3675 40.9002 10.3515C40.9436 10.2985 40.9861 10.2456 41.027 10.1911C41.0414 10.1718 41.0566 10.1534 41.0703 10.1341C41.1216 10.066 41.1713 9.99699 41.2194 9.92722C41.2251 9.9184 41.2307 9.90957 41.2371 9.90075C41.2796 9.8382 41.3205 9.77484 41.3614 9.71148C41.375 9.68902 41.3887 9.66737 41.4023 9.64491C41.4384 9.58637 41.4729 9.52782 41.5066 9.46847C41.5154 9.45243 41.525 9.43639 41.5346 9.42035C41.5747 9.34817 41.614 9.27519 41.6509 9.2014C41.663 9.17814 41.6742 9.15489 41.6854 9.13163C41.7127 9.07629 41.7391 9.02015 41.7648 8.96401C41.776 8.93915 41.7873 8.91509 41.7985 8.89023C41.8314 8.81564 41.8635 8.74025 41.8931 8.66486C41.9012 8.64481 41.9084 8.62476 41.9156 8.60471C41.9388 8.54456 41.9605 8.48441 41.9822 8.42426C41.9918 8.39619 42.0014 8.36732 42.011 8.33925C42.0166 8.3216 42.0231 8.30476 42.0287 8.28712C50.74 10.487 57.513 17.26 59.7121 25.9705C59.692 25.9769 59.672 25.9842 59.6519 25.9914C59.6287 25.9994 59.6062 26.0066 59.5838 26.0146C59.5148 26.0387 59.4458 26.0636 59.3768 26.09C59.364 26.0948 59.3512 26.0996 59.3391 26.1045C59.2597 26.1357 59.1812 26.1686 59.1034 26.2031C59.0833 26.2119 59.0625 26.2216 59.0424 26.2304C58.9807 26.2584 58.9197 26.2873 58.8596 26.317C58.8395 26.3266 58.8202 26.3362 58.8002 26.3459C58.7248 26.3844 58.6494 26.4237 58.5748 26.4654C58.562 26.4726 58.5484 26.4806 58.5355 26.4878C58.473 26.5231 58.4112 26.56 58.3503 26.5977C58.3294 26.6105 58.3086 26.6234 58.2877 26.6362C58.222 26.6779 58.157 26.7196 58.0928 26.7637C58.0856 26.7685 58.0784 26.7733 58.0712 26.7781C58.0006 26.8263 57.9316 26.8768 57.8635 26.9281C57.8442 26.9426 57.8258 26.957 57.8073 26.9714C57.7528 27.0131 57.6998 27.0556 57.6469 27.0989C57.6309 27.1118 57.6148 27.1246 57.5988 27.1382C57.533 27.1936 57.4689 27.2497 57.4047 27.3075C57.3911 27.3195 57.3782 27.3323 57.3646 27.3452C57.3133 27.3933 57.262 27.4414 57.2114 27.4911C57.1946 27.508 57.1769 27.5248 57.1601 27.5425C57.0983 27.6042 57.0382 27.6676 56.9788 27.7317C55.9154 28.9019 55.3283 30.4168 55.3283 32C55.3283 33.5832 55.9154 35.0981 56.9804 36.2675C57.0398 36.3324 57.0999 36.395 57.1617 36.4567C57.1785 36.4736 57.1962 36.4912 57.213 36.5081C57.2636 36.5578 57.3141 36.6067 57.3662 36.6548C57.3798 36.6669 57.3927 36.6797 57.4063 36.6917C57.4697 36.7495 57.5346 36.8056 57.6004 36.861C57.6156 36.8738 57.6317 36.8866 57.6469 36.8995C57.7006 36.9436 57.7544 36.9861 57.8097 37.0286C57.8282 37.0422 57.8458 37.0566 57.8643 37.0703C57.9332 37.1224 58.003 37.1729 58.0744 37.2219C58.08 37.2259 58.0856 37.2291 58.0904 37.2331C58.157 37.2788 58.2244 37.3221 58.2917 37.3654C58.311 37.3774 58.3302 37.3895 58.3495 37.4007C58.4144 37.4408 58.4794 37.4793 58.5452 37.5162C58.5548 37.5218 58.5644 37.5274 58.574 37.533C58.6502 37.5755 58.7272 37.6164 58.805 37.6557C58.8211 37.6638 58.8371 37.6718 58.8531 37.6798C58.9189 37.7127 58.9855 37.744 59.052 37.7744C59.0681 37.7817 59.0833 37.7889 59.0993 37.7961C59.1804 37.8322 59.2622 37.8667 59.3448 37.8987C59.3504 37.9012 59.3552 37.9028 59.3608 37.9052C59.4378 37.9348 59.5156 37.9637 59.5934 37.9902C59.6102 37.9958 59.6271 38.0022 59.6447 38.0078C59.6672 38.0158 59.6896 38.0239 59.7129 38.0311C57.5138 46.7401 50.74 53.5138 42.0295 55.7129ZM61.6642 35.9298C61.5366 35.9298 61.4043 35.9234 61.2736 35.9106C59.2557 35.7117 57.7343 34.0307 57.7343 32C57.7343 31.9366 57.7359 31.8733 57.7391 31.8107C57.8306 29.8659 59.3183 28.2827 61.2728 28.0894C61.4059 28.0766 61.5374 28.0702 61.665 28.0702C63.832 28.0702 65.5948 29.833 65.5948 32C65.5948 34.167 63.8312 35.9298 61.6642 35.9298Z" fill="#D8A353"/>
</g>
<defs>
<filter id="filter0_d_28_258" x="0" y="0" width="72" height="72" filterUnits="userSpaceOnUse" color-interpolation-filters="sRGB">
<feFlood flood-opacity="0" result="BackgroundImageFix"/>
<feColorMatrix in="SourceAlpha" type="matrix" values="0 0 0 0 0 0 0 0 0 0 0 0 0 0 0 0 0 0 127 0" result="hardAlpha"/>
<feOffset dy="4"/>
<feGaussianBlur stdDeviation="2"/>
<feComposite in2="hardAlpha" operator="out"/>
<feColorMatrix type="matrix" values="0 0 0 0 0 0 0 0 0 0 0 0 0 0 0 0 0 0 0.25 0"/>
<feBlend mode="normal" in2="BackgroundImageFix" result="effect1_dropShadow_28_258"/>
<feBlend mode="normal" in="SourceGraphic" in2="effect1_dropShadow_28_258" result="shape"/>
</filter>
</defs>
</svg>
