<svg width="64" height="64" viewBox="0 0 64 64" fill="none" xmlns="http://www.w3.org/2000/svg">
<path d="M62.569 28.9088L57.1021 27.1014C56.8777 25.941 56.5723 24.7977 56.1882 23.68L60.0269 19.3753L59.6518 18.6035C59.0007 17.2642 58.2538 15.9736 57.417 14.7417L56.9357 14.0339L51.3152 15.2038C50.5341 14.3071 49.6925 13.465 48.7962 12.6835L49.9648 7.06302L49.257 6.58174C48.0246 5.74426 46.7331 4.99734 45.3926 4.34686L44.6221 3.97438L40.32 7.8131C39.2021 7.42961 38.0588 7.12423 36.8986 6.89918L35.0912 1.4323L34.2374 1.36958C32.7477 1.26206 31.2523 1.26206 29.7626 1.36958L28.9088 1.43102L27.1014 6.89918C25.9418 7.12446 24.7949 7.43038 23.68 7.8131L19.3754 3.97438L18.6035 4.34942C17.2642 5.00051 15.9736 5.74741 14.7418 6.5843L14.0352 7.06558L15.2051 12.6861C14.3084 13.4671 13.4663 14.3088 12.6848 15.2051L7.0656 14.0352L6.58432 14.743C5.74684 15.9754 4.99992 17.2669 4.34944 18.6073L3.97696 19.3779L7.81312 23.68C7.42963 24.7979 7.12425 25.9412 6.8992 27.1014L1.43232 28.9088L1.3696 29.7625C1.31584 30.5037 1.28 31.2461 1.28 32C1.28 32.7539 1.31584 33.4963 1.3696 34.2374L1.43104 35.0912L6.89792 36.8985C7.1232 38.0621 7.42912 39.2077 7.81184 40.32L3.97312 44.6246L4.34816 45.3965C4.99925 46.7358 5.74615 48.0264 6.58304 49.2582L7.06432 49.9661L12.6848 48.7961C13.4659 49.6929 14.3075 50.5349 15.2038 51.3165L14.0352 56.9369L14.743 57.4182C15.9754 58.2557 17.2669 59.0026 18.6074 59.6531L19.3779 60.0256L23.6813 56.1894C24.7962 56.5721 25.9418 56.8781 27.1027 57.1033L28.9101 62.5702L29.7638 62.6317C30.5037 62.6841 31.2461 62.72 32 62.72C32.7539 62.72 33.4963 62.6841 34.2374 62.6304L35.0912 62.5689L36.8986 57.1021C38.059 56.8777 39.2022 56.5723 40.32 56.1881L44.6246 60.0269L45.3965 59.6518C46.7358 59.0007 48.0264 58.2538 49.2582 57.4169L49.9661 56.9357L48.7962 51.3152C49.6929 50.5341 50.5349 49.6925 51.3165 48.7961L56.937 49.9648L57.4182 49.2569C58.2557 48.0246 59.0026 46.7331 59.6531 45.3926L60.0256 44.6221L56.1869 40.32C56.5696 39.2051 56.8755 38.0582 57.1008 36.8985L62.5677 35.0912L62.6291 34.2374C62.6842 33.4963 62.72 32.7539 62.72 32C62.72 31.2461 62.6842 30.5037 62.6304 29.7625L62.569 28.9088ZM60.1293 33.2006L54.8365 34.9504L54.711 35.7171C54.4662 37.2307 54.0696 38.7157 53.527 40.1497L53.2531 40.8742L56.9626 45.0368C56.5952 45.7408 56.1933 46.4333 55.7645 47.1065L50.3283 45.975L49.8368 46.5766C48.8597 47.769 47.7668 48.8615 46.5741 49.8381L45.9725 50.3296L47.1053 55.7657C46.4333 56.1933 45.7421 56.5939 45.0355 56.9651L40.873 53.2531L40.1472 53.5296C38.7264 54.0685 37.2352 54.4653 35.7158 54.7123L34.9491 54.8377L33.1994 60.1305C32.4045 60.1702 31.5917 60.1702 30.7968 60.1305L29.047 54.8377L28.2803 54.7123C26.7671 54.468 25.2824 54.0713 23.849 53.5283L23.1232 53.2531L18.9606 56.9638C18.2539 56.5943 17.5633 56.1946 16.8909 55.7657L18.0224 50.3296L17.4208 49.8381C16.2285 48.861 15.136 47.7681 14.1594 46.5753L13.6678 45.9737L8.23168 47.1065C7.80349 46.4335 7.40336 45.743 7.03232 45.0368L10.7443 40.8742L10.4678 40.1485C9.9261 38.7147 9.52987 37.2301 9.28512 35.7171L9.15968 34.9504L3.86688 33.2006C3.82945 32.4006 3.83073 31.5992 3.87072 30.7993L9.16352 29.0496L9.28896 28.2829C9.5333 26.7696 9.92999 25.285 10.473 23.8515L10.7482 23.1257L7.03744 18.9632C7.4048 18.2592 7.80672 17.5667 8.23552 16.8934L13.6717 18.0249L14.1632 17.4233C15.1403 16.231 16.2332 15.1385 17.4259 14.1619L18.0275 13.6704L16.8947 8.23422C17.5678 7.80603 18.2583 7.4059 18.9645 7.03486L23.127 10.7456L23.8515 10.4717C25.2857 9.92973 26.7707 9.53308 28.2842 9.28766L29.0509 9.16222L30.8006 3.86942C31.601 3.82974 32.4028 3.82974 33.2032 3.86942L34.953 9.16222L35.7197 9.28766C37.2329 9.532 38.7176 9.92868 40.151 10.4717L40.8768 10.7469L45.0394 7.03614C45.7434 7.4035 46.4358 7.80542 47.1091 8.23422L45.9776 13.6704L46.5792 14.1619C47.767 15.1347 48.864 16.2317 49.8406 17.4246L50.3322 18.0262L55.7683 16.8934C56.1958 17.5654 56.5965 18.2566 56.9677 18.9632L53.2557 23.1257L53.5322 23.8515C54.071 25.2723 54.4678 26.7635 54.7149 28.2829L54.8403 29.0496L60.1331 30.7993C60.1705 31.5994 60.1693 32.4007 60.1293 33.2006Z" fill="#D8A353"/>
<path d="M31.6275 14.0851C24.9856 14.2733 19.4138 19.8298 19.2077 26.4717C19.1441 28.3737 19.5075 30.2657 20.2713 32.0087C21.035 33.7518 22.1797 35.3015 23.6211 36.544C25.6922 38.336 26.88 40.8461 26.88 43.52V49.92H30.72V52.48H33.28V49.92H37.12V43.433C37.12 40.873 38.3322 38.3399 40.4467 36.4851C41.8139 35.2859 42.9094 33.8088 43.6601 32.1524C44.4108 30.4961 44.7994 28.6986 44.8 26.88C44.8059 25.1673 44.4652 23.471 43.7985 21.8934C43.1317 20.3157 42.1527 18.8893 40.9203 17.6999C38.4192 15.2691 35.1091 14.0224 31.6275 14.0851ZM34.56 47.36H29.44V44.8H34.56V47.36ZM38.7584 34.56C36.4288 36.6055 34.9658 39.3293 34.633 42.24H33.28V29.9699L36.745 26.505L34.935 24.6951L32 27.6301L29.065 24.6951L27.255 26.505L30.72 29.9699V42.24H29.376C29.0624 39.3459 27.6147 36.6144 25.2954 34.6087C24.1425 33.6145 23.227 32.3747 22.6161 30.9804C22.0052 29.586 21.7144 28.0725 21.7651 26.5511C21.9302 21.2391 26.3859 16.7949 31.6992 16.6451C34.4998 16.5491 37.1341 17.5898 39.136 19.5354C40.122 20.487 40.9053 21.6282 41.4388 22.8904C41.9722 24.1526 42.2448 25.5097 42.24 26.88C42.2395 28.3342 41.9286 29.7714 41.3282 31.0959C40.7278 32.4203 39.8517 33.6013 38.7584 34.56Z" fill="#D8A353"/>
</svg>
