<svg width="64" height="64" viewBox="0 0 64 64" fill="none" xmlns="http://www.w3.org/2000/svg">
<g clip-path="url(#clip0_28_263)">
<path d="M4.006 46.312C4.17476 46.3119 4.34075 46.269 4.48849 46.1874C4.63624 46.1059 4.76093 45.9882 4.85097 45.8455C4.94101 45.7028 4.99345 45.5396 5.00342 45.3711C5.0134 45.2026 4.98057 45.0344 4.908 44.882C2.9993 40.8554 2.00618 36.4561 2 32C2 29.866 5.098 27.61 10.414 25.89C10.278 26.89 10.174 27.904 10.106 28.934C10.0973 29.0651 10.1145 29.1966 10.1567 29.321C10.1988 29.4454 10.265 29.5603 10.3516 29.6591C10.4381 29.7579 10.5433 29.8387 10.6611 29.8968C10.7789 29.955 10.9069 29.9894 11.038 29.998C11.1695 30.0086 11.3017 29.9927 11.4269 29.9513C11.5521 29.9099 11.6678 29.8438 11.767 29.7569C11.8662 29.67 11.947 29.5641 12.0045 29.4454C12.0621 29.3267 12.0952 29.1977 12.102 29.066C12.188 27.768 12.35 26.506 12.546 25.262C15.358 24.508 18.66 23.9 22.346 23.504C22.278 24.326 22.22 25.15 22.174 25.974C22.1593 26.2387 22.2502 26.4983 22.4268 26.696C22.6035 26.8936 22.8514 27.013 23.116 27.028L23.174 27.03C23.4294 27.0299 23.6752 26.932 23.8607 26.7565C24.0463 26.581 24.1577 26.341 24.172 26.086C24.226 25.14 24.292 24.216 24.368 23.318C26.9078 23.1058 29.4553 22.9991 32.004 22.998C34.688 22.998 37.228 23.118 39.64 23.318C39.712 24.16 39.774 25.02 39.826 25.904C39.831 26.0359 39.8626 26.1655 39.9189 26.285C39.9752 26.4044 40.0551 26.5112 40.1537 26.599C40.2523 26.6868 40.3677 26.7538 40.4928 26.7959C40.618 26.838 40.7504 26.8543 40.882 26.844C41.1467 26.8285 41.3943 26.7086 41.5706 26.5106C41.7469 26.3126 41.8373 26.0527 41.822 25.788C41.778 25.026 41.722 24.264 41.66 23.504C45.344 23.9 48.646 24.508 51.458 25.262C51.654 26.506 51.816 27.768 51.902 29.064C51.9168 29.3174 52.028 29.5556 52.2129 29.7297C52.3977 29.9037 52.6421 30.0004 52.896 30L52.964 29.998C53.2285 29.98 53.4751 29.858 53.6498 29.6585C53.8245 29.4591 53.913 29.1986 53.896 28.934C53.8285 27.9161 53.7258 26.9008 53.588 25.89C58.902 27.61 62 29.866 62 32C62 36.42 61 40.868 59.106 44.86C59.0439 44.9793 59.0065 45.1099 58.996 45.2439C58.9855 45.378 59.0022 45.5128 59.045 45.6403C59.0878 45.7678 59.1559 45.8853 59.2452 45.9859C59.3345 46.0864 59.4431 46.1679 59.5646 46.2255C59.6862 46.2831 59.818 46.3156 59.9524 46.3211C60.0868 46.3265 60.2209 46.3048 60.3467 46.2572C60.4724 46.2097 60.5873 46.1372 60.6845 46.0442C60.7816 45.9512 60.859 45.8396 60.912 45.716C62.9389 41.4272 63.9933 36.7436 64 32C64 14.356 49.644 0 32 0C14.356 0 0 14.356 0 32C0 36.724 1.072 41.476 3.102 45.742C3.18334 45.9128 3.31146 46.057 3.47147 46.1579C3.63148 46.2588 3.81683 46.3122 4.006 46.312ZM2.86 27.328C4.386 23.098 7.91 19.386 12.758 16.676C11.8888 18.962 11.2268 21.3215 10.78 23.726C7.508 24.694 4.758 25.898 2.86 27.328ZM12.926 23.14C13.4854 20.4521 14.3364 17.8333 15.464 15.33C18.1786 14.1481 21.0208 13.2844 23.934 12.756C23.2983 15.6417 22.8315 18.562 22.536 21.502C19.124 21.862 15.862 22.412 12.926 23.14ZM37.4 10.338C35.6081 10.1201 33.8051 10.0073 32 10C30.156 10 28.358 10.132 26.598 10.338C28.156 4.972 30.178 2 32 2C33.818 2 35.842 4.974 37.4 10.338ZM36.192 2.71C40.502 4.136 44.342 7.698 47.16 12.632C44.6901 11.7311 42.1408 11.0649 39.546 10.642C38.662 7.364 37.544 4.602 36.192 2.71ZM24.452 10.644C21.772 11.092 19.21 11.752 16.84 12.632C19.658 7.7 23.494 4.14 27.804 2.712C26.452 4.604 25.334 7.364 24.452 10.644ZM32 21C29.51 21 27.012 21.114 24.562 21.316C24.922 17.938 25.438 14.954 26.054 12.398C29.9994 11.8649 33.9986 11.8649 37.944 12.398C38.562 14.954 39.078 17.94 39.438 21.316C36.964 21.109 34.4826 21.0036 32 21ZM41.466 21.502C41.1697 18.5619 40.7022 15.6416 40.066 12.756C43.11 13.324 45.966 14.192 48.538 15.33C49.6656 17.8333 50.5166 20.4521 51.076 23.14C47.9136 22.3765 44.7028 21.8293 41.466 21.502ZM53.222 23.726C52.7742 21.3217 52.1122 18.9623 51.244 16.676C56.09 19.386 59.614 23.098 61.14 27.328C59.242 25.898 56.492 24.694 53.222 23.726ZM60.034 21.412C57.6 18.378 54.158 15.78 50.018 13.834C48.03 9.708 45.402 6.288 42.356 3.882C46.3825 5.37392 50.0432 7.71009 53.0923 10.7336C56.1414 13.7572 58.5083 17.3982 60.034 21.412ZM21.644 3.88C18.6 6.288 15.972 9.706 13.984 13.834C9.842 15.78 6.4 18.378 3.966 21.412C5.49193 17.398 7.85885 13.7569 10.9079 10.7331C13.9569 7.70923 17.6175 5.37259 21.644 3.88ZM5.954 64C6.21922 64 6.47357 63.8946 6.66111 63.7071C6.84864 63.5196 6.954 63.2652 6.954 63V60.798C6.954 59.678 6.538 58.606 5.784 57.78L5.06 56.988C4.97149 56.8911 4.86476 56.8126 4.74589 56.7569C4.62703 56.7012 4.49837 56.6695 4.36725 56.6636C4.23614 56.6576 4.10514 56.6776 3.98173 56.7222C3.85832 56.7669 3.74492 56.8355 3.648 56.924C3.55108 57.0125 3.47255 57.1192 3.41688 57.2381C3.36122 57.357 3.32951 57.4856 3.32357 57.6167C3.31762 57.7479 3.33756 57.8789 3.38225 58.0023C3.42693 58.1257 3.49549 58.2391 3.584 58.336L4.308 59.128C4.724 59.586 4.956 60.178 4.956 60.798V63C4.954 63.552 5.4 64 5.954 64ZM22.666 56.184C22.4701 56.3626 22.3531 56.6116 22.3408 56.8763C22.3284 57.1411 22.4216 57.3999 22.6 57.596C23.074 58.116 23.336 58.79 23.336 59.492V63C23.336 63.2652 23.4414 63.5196 23.6289 63.7071C23.8164 63.8946 24.0708 64 24.336 64C24.6012 64 24.8556 63.8946 25.0431 63.7071C25.2306 63.5196 25.336 63.2652 25.336 63V59.492C25.336 58.288 24.89 57.138 24.08 56.248C23.9914 56.1509 23.8846 56.0721 23.7655 56.0163C23.6465 55.9605 23.5176 55.9287 23.3863 55.9228C23.2549 55.9168 23.1237 55.9369 23.0001 55.9817C22.8765 56.0265 22.763 56.0952 22.666 56.184ZM40.664 63V59.492C40.664 58.788 40.926 58.116 41.4 57.596C41.4887 57.4992 41.5574 57.3858 41.6022 57.2624C41.647 57.1389 41.667 57.0079 41.661 56.8767C41.6551 56.7455 41.6233 56.6168 41.5675 56.498C41.5118 56.3791 41.4331 56.2724 41.336 56.184C41.2395 56.0946 41.1263 56.0252 41.0028 55.98C40.8793 55.9347 40.748 55.9145 40.6166 55.9204C40.4852 55.9264 40.3563 55.9584 40.2374 56.0147C40.1185 56.0709 40.012 56.1502 39.924 56.248C39.1137 57.134 38.6649 58.2914 38.666 59.492V63C38.6775 63.2572 38.7878 63.5001 38.9739 63.678C39.16 63.856 39.4075 63.9553 39.665 63.9553C39.9225 63.9553 40.17 63.856 40.3561 63.678C40.5422 63.5001 40.6525 63.2572 40.664 63ZM58.942 56.988L58.216 57.78C57.4632 58.6047 57.0465 59.6814 57.048 60.798V63C57.048 63.2652 57.1534 63.5196 57.3409 63.7071C57.5284 63.8946 57.7828 64 58.048 64C58.3132 64 58.5676 63.8946 58.7551 63.7071C58.9426 63.5196 59.048 63.2652 59.048 63V60.798C59.048 60.178 59.278 59.586 59.694 59.128L60.418 58.336C60.5116 58.24 60.585 58.1262 60.6337 58.0013C60.6825 57.8764 60.7056 57.7429 60.7017 57.6089C60.6979 57.4748 60.6671 57.343 60.6112 57.2211C60.5554 57.0992 60.4755 56.9898 60.3765 56.8993C60.2775 56.8089 60.1613 56.7393 60.0349 56.6947C59.9084 56.6501 59.7743 56.6314 59.6405 56.6396C59.5066 56.6479 59.3758 56.683 59.2558 56.7429C59.1359 56.8027 59.0291 56.8861 58.942 56.988Z" fill="#D8A353"/>
<path d="M1 64C1.26522 64 1.51957 63.8946 1.70711 63.7071C1.89464 63.5195 2 63.2652 2 63V56.81C2 55.566 2.782 54.438 3.948 54L5.944 53.252C6.69368 54.1246 7.62279 54.8252 8.66791 55.306C9.71304 55.7868 10.8496 56.0364 12 56.038C13.1504 56.0363 14.2869 55.7866 15.332 55.3058C16.3771 54.825 17.3062 54.1245 18.056 53.252L19.286 53.714C18.4621 54.7159 18.008 55.9708 18 57.268V63C18 63.2652 18.1054 63.5195 18.2929 63.7071C18.4804 63.8946 18.7348 64 19 64C19.2652 64 19.5196 63.8946 19.7071 63.7071C19.8946 63.5195 20 63.2652 20 63V57.268C20 55.976 20.654 54.798 21.75 54.116L26.198 51.344C27.71 52.922 29.794 53.882 31.998 53.882C34.202 53.882 36.284 52.922 37.796 51.346L42.246 54.116C43.344 54.798 44 55.976 44 57.27V63C44 63.2652 44.1054 63.5195 44.2929 63.7071C44.4804 63.8946 44.7348 64 45 64C45.2652 64 45.5196 63.8946 45.7071 63.7071C45.8946 63.5195 46 63.2652 46 63V57.27C46 55.94 45.516 54.712 44.712 53.714L45.942 53.252C46.692 54.1247 47.6214 54.8254 48.6669 55.3062C49.7124 55.787 50.8493 56.0366 52 56.038C53.1504 56.0363 54.2869 55.7866 55.332 55.3058C56.3771 54.825 57.3062 54.1245 58.056 53.252L60.052 54C61.218 54.438 62 55.566 62 56.81V63C62 63.2652 62.1054 63.5195 62.2929 63.7071C62.4804 63.8946 62.7348 64 63 64C63.2652 64 63.5196 63.8946 63.7071 63.7071C63.8946 63.5195 64 63.2652 64 63V56.81C63.997 55.7929 63.6853 54.8006 63.106 53.9646C62.5267 53.1285 61.7072 52.4881 60.756 52.128L56 50.344V48.04C56.6262 47.4822 57.1279 46.7987 57.4721 46.034C57.8164 45.2693 57.9956 44.4406 57.998 43.602V41.264L59.16 37.004C59.324 36.098 59.122 35.182 58.592 34.428C58.062 33.674 57.268 33.174 56.36 33.022L50.66 32.072C49.8219 31.9319 48.9618 32.1147 48.253 32.5834C47.5442 33.0521 47.0393 33.7719 46.84 34.598C46.2895 34.7731 45.8026 35.1063 45.44 35.556C44.876 36.254 44.66 37.156 44.884 38.162L46 41.284V43.604C46 45.372 46.782 46.946 48.002 48.046V50.344L43.246 52.13C43.166 52.16 43.098 52.206 43.02 52.238L41.352 51.2C42.0101 50.8902 42.5496 50.3749 42.8891 49.7316C43.2286 49.0883 43.3497 48.3521 43.234 47.634C42.7505 44.616 42.5071 41.5644 42.506 38.508V35.194C42.5028 32.4282 41.4027 29.7766 39.447 27.8209C37.4913 25.8652 34.8398 24.7651 32.074 24.762C29.3082 24.7651 26.6567 25.8652 24.701 27.8209C22.7453 29.7766 21.6452 32.4282 21.642 35.194V38.508C21.642 41.55 21.396 44.622 20.914 47.634C20.7962 48.3369 20.9083 49.0591 21.2337 49.6933C21.559 50.3274 22.0803 50.8397 22.72 51.154L20.982 52.238C20.906 52.206 20.836 52.16 20.758 52.13L16 50.344V48.04C16.6262 47.4822 17.1279 46.7987 17.4721 46.034C17.8164 45.2693 17.9956 44.4406 17.998 43.602V41.264L19.16 37.004C19.324 36.098 19.122 35.182 18.592 34.428C18.062 33.674 17.268 33.174 16.36 33.022L10.66 32.072C9.82198 31.9329 8.96238 32.116 8.2538 32.5846C7.54523 33.0531 7.04015 33.7724 6.84 34.598C6.2895 34.7731 5.80264 35.1063 5.44 35.556C4.876 36.254 4.66 37.156 4.884 38.162L6 41.284V43.604C6 45.372 6.782 46.946 8.002 48.046V50.344L3.246 52.13C2.29454 52.4894 1.4747 53.1293 0.895046 53.9651C0.31539 54.8008 0.00326325 55.7929 0 56.81L0 63C0 63.2652 0.105357 63.5195 0.292893 63.7071C0.48043 63.8946 0.734784 64 1 64ZM47.27 38.916L46.802 37.616C46.7722 37.4765 46.7739 37.3321 46.8071 37.1934C46.8403 37.0547 46.9041 36.9252 46.9939 36.8144C47.0836 36.7035 47.197 36.6142 47.3258 36.5529C47.4545 36.4915 47.5954 36.4598 47.738 36.46C48.29 36.46 48.738 35.948 48.738 35.396C48.7402 35.1979 48.785 35.0027 48.8693 34.8235C48.9537 34.6443 49.0756 34.4854 49.2268 34.3575C49.378 34.2297 49.555 34.1358 49.7457 34.0824C49.9364 34.029 50.1364 34.0172 50.332 34.048L56.032 34.998C56.2176 35.0283 56.3952 35.0957 56.5543 35.196C56.7133 35.2963 56.8506 35.4276 56.958 35.582C57.178 35.894 57.262 36.276 57.212 36.566L56.608 38.774L56.438 38.526C56.3463 38.3914 56.2231 38.2814 56.0792 38.2054C55.9352 38.1294 55.7748 38.0898 55.612 38.09H48.36C48.1953 38.0899 48.0331 38.1306 47.8879 38.2084C47.7428 38.2862 47.6191 38.3987 47.528 38.536L47.27 38.916ZM47.998 43.604V41.426L48.894 40.086H55.084L55.998 41.424V43.604C55.9968 44.4395 55.7326 45.2534 55.243 45.9304C54.7533 46.6074 54.0631 47.1131 53.27 47.376L53.22 47.392C52.6124 47.5877 51.9666 47.6343 51.3372 47.5278C50.7078 47.4213 50.1133 47.1648 49.604 46.78C49.598 46.776 49.592 46.778 49.588 46.774C49.096 46.4044 48.6963 45.9259 48.4204 45.3758C48.1445 44.8258 47.9999 44.2193 47.998 43.604ZM49.352 51.972C49.5422 51.9007 49.7062 51.7731 49.822 51.6062C49.9378 51.4393 49.9999 51.2411 50 51.038V49.252C50.112 49.292 50.232 49.31 50.346 49.344C50.534 49.398 50.718 49.458 50.914 49.494C51.178 49.542 51.446 49.562 51.714 49.574C51.81 49.578 51.9 49.602 51.996 49.602C52.08 49.602 52.158 49.58 52.24 49.578C52.526 49.566 52.81 49.544 53.092 49.492C53.26 49.46 53.42 49.408 53.584 49.362C53.722 49.324 53.864 49.302 54 49.252V51.036C54 51.2394 54.062 51.4379 54.1778 51.6052C54.2936 51.7724 54.4576 51.9004 54.648 51.972L56.012 52.484C54.9129 53.4803 53.4835 54.0339 52 54.038C50.5168 54.0343 49.0875 53.4814 47.988 52.486L49.352 51.972ZM32 51.88C30.48 51.88 29.032 51.278 27.922 50.268L28.988 49.604C29.13 49.513 29.2461 49.387 29.3253 49.2382C29.4045 49.0893 29.444 48.9225 29.44 48.754H29.458V46.604C30.2664 46.9056 31.1212 47.064 31.984 47.072C32.882 47.072 33.732 46.888 34.532 46.598V48.754H34.552C34.552 49.088 34.702 49.414 35.006 49.604L36.076 50.27C34.9647 51.2947 33.5116 51.8686 32 51.88ZM26.458 39.546V38.284C26.458 36.748 27.35 35.378 28.684 34.67C31.108 36.428 33.91 37.39 36.822 37.39H36.824L37.278 37.404C37.358 37.404 37.432 37.424 37.51 37.43V39.546C37.51 42.592 35.03 45.074 31.984 45.074C28.938 45.074 26.458 42.594 26.458 39.546ZM41.258 47.95C41.2889 48.1441 41.2774 48.3427 41.2242 48.532C41.171 48.7212 41.0774 48.8967 40.9498 49.0463C40.8223 49.1959 40.6638 49.3161 40.4853 49.3986C40.3068 49.481 40.1126 49.5238 39.916 49.524H38.66L36.534 48.2V45.504C37.4562 44.8078 38.2049 43.9077 38.7215 42.8741C39.2381 41.8405 39.5087 40.7015 39.512 39.546V38.416C40.122 39.072 40.506 39.988 40.506 41.006C40.506 41.17 40.554 41.318 40.624 41.454C40.73 43.63 40.914 45.806 41.258 47.95ZM23.64 38.508V35.194C23.64 30.546 27.422 26.762 32.072 26.762C36.722 26.762 40.504 30.546 40.504 35.194V36.628C40.058 36.2464 39.5491 35.9453 39 35.738C38.8914 35.6762 38.7719 35.6361 38.648 35.62C38.2152 35.4849 37.7653 35.4128 37.312 35.406L36.858 35.392C34.226 35.392 31.712 34.51 29.566 32.864C29.4372 32.6978 29.2589 32.5769 29.0568 32.5187C28.8548 32.4604 28.6395 32.4679 28.442 32.54C27.3407 32.9587 26.3828 33.685 25.6822 34.6323C24.9816 35.5797 24.5678 36.7083 24.49 37.884C24.482 37.938 24.458 37.986 24.458 38.04V39.55C24.458 41.994 25.648 44.148 27.458 45.524V48.2L25.334 49.524H24.228C24.0316 49.5235 23.8375 49.4805 23.6593 49.3979C23.4811 49.3154 23.3228 49.1951 23.1955 49.0456C23.0682 48.896 22.9747 48.7206 22.9217 48.5315C22.8686 48.3423 22.8571 48.144 22.888 47.95C23.388 44.834 23.64 41.656 23.64 38.508ZM7.27 38.916L6.802 37.616C6.77216 37.4765 6.77391 37.3321 6.80711 37.1934C6.8403 37.0547 6.90411 36.9252 6.99386 36.8144C7.08361 36.7035 7.19701 36.6142 7.32577 36.5529C7.45453 36.4915 7.59538 36.4598 7.738 36.46C8.29 36.46 8.738 35.948 8.738 35.396C8.74019 35.1979 8.78499 35.0027 8.86933 34.8235C8.95367 34.6443 9.07559 34.4854 9.22681 34.3575C9.37803 34.2297 9.555 34.1358 9.7457 34.0824C9.9364 34.029 10.1364 34.0172 10.332 34.048L16.032 34.998C16.2176 35.0283 16.3952 35.0957 16.5543 35.196C16.7133 35.2963 16.8506 35.4276 16.958 35.582C17.178 35.894 17.262 36.276 17.212 36.566L16.608 38.774L16.438 38.526C16.3463 38.3914 16.2231 38.2814 16.0792 38.2054C15.9352 38.1294 15.7748 38.0898 15.612 38.09H8.358C8.19328 38.0899 8.03111 38.1306 7.88593 38.2084C7.74076 38.2862 7.61711 38.3987 7.526 38.536L7.27 38.916ZM7.998 43.604V41.426L8.894 40.086H15.084L15.998 41.424V43.604C15.9963 44.2208 15.8512 44.8288 15.5742 45.38C15.2973 45.9312 14.896 46.4105 14.402 46.78L14.396 46.782C14.0516 47.0405 13.6681 47.2423 13.26 47.38L13.23 47.39C12.434 47.65 11.574 47.652 10.776 47.394L10.732 47.38C10.3258 47.2441 9.94425 47.0435 9.602 46.786L9.594 46.784C9.09996 46.4136 8.69866 45.9336 8.4217 45.3818C8.14475 44.83 7.9997 44.2214 7.998 43.604ZM9.352 51.972C9.54223 51.9007 9.70619 51.7731 9.82198 51.6062C9.93777 51.4393 9.99987 51.2411 10 51.038V49.254C10.124 49.298 10.254 49.318 10.38 49.354C10.556 49.404 10.728 49.46 10.91 49.494C11.18 49.544 11.454 49.564 11.73 49.576C11.82 49.58 11.906 49.604 11.998 49.604C12.086 49.604 12.168 49.582 12.256 49.578C12.536 49.566 12.814 49.544 13.088 49.494C13.27 49.46 13.442 49.404 13.618 49.354C13.746 49.318 13.878 49.298 14.002 49.252V51.038C14.002 51.2414 14.064 51.4399 14.1798 51.6072C14.2956 51.7744 14.4596 51.9024 14.65 51.974L16.012 52.486C14.9122 53.4809 13.4831 54.0337 12 54.038C10.5168 54.0343 9.08754 53.4814 7.988 52.486L9.352 51.972Z" fill="#D8A353"/>
</g>
<defs>
<clipPath id="clip0_28_263">
<rect width="64" height="64" fill="white"/>
</clipPath>
</defs>
</svg>
