<svg width="64" height="64" viewBox="0 0 64 64" fill="none" xmlns="http://www.w3.org/2000/svg">
<path d="M32 15.3C28.6971 15.3 25.4683 16.2794 22.722 18.1145C19.9757 19.9495 17.8352 22.5577 16.5712 25.6092C15.3072 28.6607 14.9765 32.0185 15.6209 35.258C16.2653 38.4975 17.8558 41.4731 20.1913 43.8087C22.5269 46.1442 25.5025 47.7347 28.742 48.3791C31.9815 49.0235 35.3393 48.6928 38.3908 47.4288C41.4423 46.1648 44.0505 44.0243 45.8855 41.278C47.7206 38.5317 48.7 35.303 48.7 32C48.6955 27.5723 46.9346 23.3272 43.8037 20.1963C40.6728 17.0654 36.4277 15.3045 32 15.3ZM43.33 30.08L38.71 34.47L39.71 40.76C39.7545 41.037 39.7199 41.321 39.6103 41.5793C39.5006 41.8376 39.3203 42.0596 39.09 42.22C38.8413 42.4041 38.5394 42.5024 38.23 42.5C37.9789 42.4997 37.7317 42.4379 37.51 42.32L31.91 39.28L26.24 42.18C25.9902 42.3058 25.7103 42.3596 25.4317 42.3353C25.1531 42.311 24.8867 42.2096 24.6625 42.0425C24.4382 41.8753 24.265 41.649 24.1621 41.389C24.0592 41.1289 24.0308 40.8453 24.08 40.57L25.24 34.31L20.73 29.8C20.5315 29.6024 20.3923 29.3532 20.3281 29.0806C20.2639 28.808 20.2773 28.5229 20.3668 28.2575C20.4563 27.9921 20.6183 27.7571 20.8345 27.579C21.0507 27.401 21.3124 27.287 21.59 27.25L27.91 26.42L30.8 20.74C30.9339 20.4974 31.129 20.2941 31.3658 20.1503C31.6026 20.0064 31.873 19.927 32.15 19.92C32.4299 19.9251 32.7029 20.0071 32.9393 20.157C33.1756 20.3069 33.3662 20.519 33.49 20.77L36.23 26.52L42.53 27.52C42.8061 27.5629 43.0647 27.682 43.2768 27.864C43.4888 28.046 43.6458 28.2836 43.73 28.55C43.8102 28.8172 43.8154 29.1013 43.7448 29.3712C43.6742 29.6411 43.5307 29.8863 43.33 30.08ZM54.93 35.04C55.94 33.99 56.98 32.9 56.98 32C56.98 31.1 55.94 30.01 54.93 28.96C53.818 27.9747 52.9429 26.7509 52.37 25.38C52.013 23.8896 51.9959 22.3379 52.32 20.84C52.51 19.43 52.7 17.98 52.21 17.31C51.72 16.64 50.26 16.37 48.86 16.11C47.3455 15.9542 45.884 15.4659 44.58 14.68C43.4427 13.6894 42.5379 12.4602 41.93 11.08C41.25 9.81001 40.55 8.5 39.72 8.23C38.97 7.99 37.66 8.61001 36.4 9.22001C35.0521 9.995 33.5496 10.4628 32 10.59C30.4504 10.4628 28.9479 9.995 27.6 9.22001C26.34 8.61001 25.03 7.98 24.28 8.23C23.45 8.5 22.75 9.81001 22.07 11.08C21.4621 12.4602 20.5573 13.6894 19.42 14.68C18.116 15.4659 16.6545 15.9542 15.14 16.11C13.74 16.37 12.28 16.63 11.79 17.31C11.3 17.99 11.49 19.43 11.68 20.84C12.0041 22.3379 11.987 23.8896 11.63 25.38C11.0571 26.7509 10.182 27.9747 9.07 28.96C8.06 30.01 7.02 31.1 7.02 32C7.02 32.9 8.06 33.99 9.07 35.04C10.182 36.0254 11.0571 37.2491 11.63 38.62C11.987 40.1104 12.0041 41.6621 11.68 43.16C11.49 44.57 11.3 46.02 11.79 46.69C12.28 47.36 13.74 47.63 15.14 47.89C16.6545 48.0458 18.116 48.5341 19.42 49.32C20.5573 50.3106 21.4621 51.5398 22.07 52.92C22.75 54.19 23.45 55.5 24.28 55.77C25.03 56.01 26.34 55.39 27.6 54.78C28.9479 54.005 30.4504 53.5372 32 53.41C33.5496 53.5372 35.0521 54.005 36.4 54.78C37.66 55.39 38.97 56.02 39.72 55.77C40.55 55.5 41.25 54.19 41.93 52.92C42.5379 51.5398 43.4427 50.3106 44.58 49.32C45.884 48.5341 47.3455 48.0458 48.86 47.89C50.26 47.63 51.72 47.37 52.21 46.69C52.7 46.01 52.51 44.57 52.32 43.16C51.9959 41.6621 52.013 40.1104 52.37 38.62C52.9429 37.2491 53.818 36.0254 54.93 35.04ZM32 51.7C28.1037 51.7 24.2949 50.5446 21.0553 48.38C17.8156 46.2153 15.2906 43.1386 13.7996 39.5389C12.3085 35.9392 11.9184 31.9782 12.6785 28.1567C13.4387 24.3353 15.3149 20.8251 18.07 18.07C20.8251 15.3149 24.3353 13.4387 28.1567 12.6785C31.9781 11.9184 35.9392 12.3085 39.5389 13.7996C43.1386 15.2906 46.2153 17.8156 48.38 21.0553C50.5446 24.2949 51.7 28.1037 51.7 32C51.6931 37.2227 49.6154 42.2294 45.9224 45.9224C42.2294 49.6154 37.2227 51.6931 32 51.7ZM34.99 29.36L39.06 30L36.07 32.84C35.8941 33.0096 35.7615 33.2188 35.6832 33.4503C35.6049 33.6817 35.5832 33.9285 35.62 34.17L36.27 38.23L32.65 36.27C32.4283 36.1521 32.1811 36.0903 31.93 36.09C31.6939 36.0893 31.461 36.1441 31.25 36.25L27.58 38.12L28.33 34.07C28.3729 33.8309 28.3571 33.5849 28.284 33.3532C28.2108 33.1215 28.0825 32.9111 27.91 32.74L25 29.83L29.08 29.29C29.3213 29.257 29.551 29.1661 29.7495 29.025C29.948 28.884 30.1094 28.697 30.22 28.48L32.09 24.81L33.87 28.53C33.976 28.7484 34.1332 28.9379 34.3282 29.0824C34.5232 29.2269 34.7502 29.3222 34.99 29.36Z" fill="#D8A353"/>
</svg>
