<svg width="64" height="64" viewBox="0 0 64 64" fill="none" xmlns="http://www.w3.org/2000/svg">
<path d="M32 39.9999C31.8282 39.9994 31.6595 39.9546 31.51 39.8699C31.28 39.7399 25.93 36.6899 25.93 30.9999C25.93 25.3099 31.28 22.2499 31.51 22.1299C31.662 22.0422 31.8345 21.996 32.01 21.996C32.1855 21.996 32.358 22.0422 32.51 22.1299C32.74 22.2599 38.09 25.3099 38.09 30.9999C38.09 36.6899 32.74 39.7499 32.51 39.8699C32.3547 39.958 32.1786 40.0029 32 39.9999ZM32 24.1899C30.83 25.0099 27.94 27.3899 27.94 30.9999C27.94 34.6099 30.83 36.9999 32 37.8099C33.17 36.9899 36.06 34.6099 36.06 30.9999C36.06 27.3899 33.18 24.9999 32 24.1899Z" fill="#D8A353"/>
<path d="M33 29H31V42H33V29Z" fill="#D8A353"/>
<path d="M32 30C31.8684 30.0008 31.7379 29.9756 31.6161 29.9258C31.4943 29.876 31.3834 29.8027 31.29 29.71L29.29 27.71L30.7 26.3L32 27.59L33.29 26.3L34.7 27.71L32.7 29.71C32.5137 29.8948 32.2623 29.9989 32 30ZM32 36C31.8684 36.0008 31.7379 35.9756 31.6161 35.9258C31.4943 35.876 31.3834 35.8027 31.29 35.71L28.29 32.71L29.7 31.3L32 33.59L34.29 31.3L35.7 32.71L32.7 35.71C32.5137 35.8948 32.2623 35.9989 32 36ZM45 20H34C33.8014 20.0012 33.6069 19.9432 33.4414 19.8333C33.2759 19.7235 33.1468 19.5669 33.0706 19.3835C32.9945 19.2001 32.9747 18.9981 33.0137 18.8033C33.0528 18.6086 33.149 18.4299 33.29 18.29L34.59 17L32 14.41L26.71 19.7C26.5226 19.8863 26.2692 19.9908 26.005 19.9908C25.7408 19.9908 25.4874 19.8863 25.3 19.7L18.3 12.7C18.1137 12.5127 18.0092 12.2592 18.0092 11.995C18.0092 11.7308 18.1137 11.4774 18.3 11.29L24.3 5.29002C24.4863 5.10527 24.7377 5.00112 25 5.00002H39C39.1316 4.99926 39.2621 5.02448 39.3839 5.07425C39.5057 5.12401 39.6166 5.19734 39.71 5.29002L43 8.59002L44.29 7.30002C44.4293 7.1596 44.6071 7.06362 44.8009 7.02424C44.9947 6.98485 45.1958 7.00382 45.3789 7.07875C45.5619 7.15367 45.7186 7.28119 45.8291 7.44517C45.9397 7.60916 45.9992 7.80224 46 8.00002V19C46 19.2652 45.8946 19.5196 45.7071 19.7071C45.5196 19.8947 45.2652 20 45 20ZM36.41 18H44V10.41L43.71 10.7C43.5226 10.8863 43.2692 10.9908 43.005 10.9908C42.7408 10.9908 42.4874 10.8863 42.3 10.7L38.59 7.00002H27.41L36.7 16.29C36.8863 16.4774 36.9908 16.7308 36.9908 16.995C36.9908 17.2592 36.8863 17.5127 36.7 17.7L36.41 18ZM20.41 12L26 17.59L30.59 13L25 7.41002L20.41 12ZM56 46H45C44.7348 46 44.4804 45.8947 44.2929 45.7071C44.1054 45.5196 44 45.2652 44 45V34C43.9988 33.8014 44.0569 33.6069 44.1667 33.4414C44.2765 33.2759 44.4331 33.1468 44.6165 33.0706C44.8 32.9945 45.0019 32.9747 45.1967 33.0137C45.3914 33.0528 45.5701 33.149 45.71 33.29L47 34.59L49.59 32L44.3 26.71C44.1137 26.5227 44.0092 26.2692 44.0092 26.005C44.0092 25.7408 44.1137 25.4874 44.3 25.3L51.3 18.3C51.4874 18.1138 51.7408 18.0092 52.005 18.0092C52.2692 18.0092 52.5226 18.1138 52.71 18.3L58.71 24.3C58.8947 24.4863 58.9989 24.7377 59 25V39C59.0008 39.1316 58.9755 39.2621 58.9258 39.3839C58.876 39.5058 58.8027 39.6166 58.71 39.71L55.41 43L56.7 44.29C56.8404 44.4293 56.9364 44.6071 56.9758 44.8009C57.0152 44.9947 56.9962 45.1958 56.9213 45.3789C56.8463 45.5619 56.7188 45.7186 56.5548 45.8292C56.3909 45.9397 56.1978 45.9992 56 46ZM46 44H53.59L53.3 43.71C53.1137 43.5227 53.0092 43.2692 53.0092 43.005C53.0092 42.7408 53.1137 42.4874 53.3 42.3L57 38.59V27.41L47.71 36.7C47.5226 36.8863 47.2692 36.9908 47.005 36.9908C46.7408 36.9908 46.4874 36.8863 46.3 36.7L46 36.41V44ZM46.41 26L51 30.59L56.59 25L52 20.41L46.41 26ZM39 59H25C24.8684 59.0008 24.7379 58.9755 24.6161 58.9258C24.4943 58.876 24.3834 58.8027 24.29 58.71L21 55.41L19.71 56.7C19.5707 56.8404 19.3929 56.9364 19.1991 56.9758C19.0053 57.0152 18.8042 56.9962 18.6211 56.9213C18.4381 56.8464 18.2814 56.7188 18.1708 56.5549C18.0603 56.3909 18.0008 56.1978 18 56V45C18 44.7348 18.1054 44.4804 18.2929 44.2929C18.4804 44.1054 18.7348 44 19 44H30C30.1986 43.9989 30.3931 44.0569 30.5586 44.1667C30.7241 44.2765 30.8532 44.4331 30.9294 44.6165C31.0055 44.8 31.0254 45.0019 30.9863 45.1967C30.9472 45.3914 30.851 45.5701 30.71 45.71L29.41 47L32 49.59L37.29 44.3C37.4774 44.1138 37.7308 44.0092 37.995 44.0092C38.2592 44.0092 38.5126 44.1138 38.7 44.3L45.7 51.3C45.8862 51.4874 45.9908 51.7408 45.9908 52.005C45.9908 52.2692 45.8862 52.5227 45.7 52.71L39.7 58.71C39.5137 58.8948 39.2623 58.9989 39 59ZM25.41 57H36.59L27.3 47.71C27.1137 47.5227 27.0092 47.2692 27.0092 47.005C27.0092 46.7408 27.1137 46.4874 27.3 46.3L27.59 46.01H20V53.6L20.29 53.31C20.4774 53.1238 20.7308 53.0192 20.995 53.0192C21.2592 53.0192 21.5126 53.1238 21.7 53.31L25.41 57ZM33.41 51L39 56.59L43.59 52L38 46.41L33.41 51ZM12 46C11.8684 46.0008 11.7379 45.9755 11.6161 45.9258C11.4943 45.876 11.3834 45.8027 11.29 45.71L5.29 39.71C5.19732 39.6166 5.12399 39.5058 5.07423 39.3839C5.02446 39.2621 4.99924 39.1316 5 39V25C4.99924 24.8684 5.02446 24.7379 5.07423 24.6161C5.12399 24.4943 5.19732 24.3835 5.29 24.29L8.59 21L7.29 19.71C7.14897 19.5701 7.05279 19.3914 7.01372 19.1967C6.97465 19.0019 6.99446 18.8 7.07063 18.6165C7.1468 18.4331 7.27587 18.2765 7.44139 18.1667C7.60691 18.0569 7.80137 17.9989 8 18H19C19.2652 18 19.5196 18.1054 19.7071 18.2929C19.8946 18.4804 20 18.7348 20 19V30C20.0012 30.1986 19.9431 30.3931 19.8333 30.5586C19.7235 30.7241 19.5669 30.8532 19.3835 30.9294C19.2 31.0056 18.9981 31.0254 18.8033 30.9863C18.6086 30.9472 18.4299 30.851 18.29 30.71L17 29.41L14.41 32L19.7 37.29C19.8863 37.4774 19.9908 37.7308 19.9908 37.995C19.9908 38.2592 19.8863 38.5127 19.7 38.7L12.7 45.7C12.5154 45.8884 12.2638 45.9963 12 46ZM7.41 39L12 43.59L17.59 38L13 33.41L7.41 39ZM7 25.41V36.59L16.29 27.3C16.4774 27.1138 16.7308 27.0092 16.995 27.0092C17.2592 27.0092 17.5126 27.1138 17.7 27.3L17.99 27.59V20H10.41L10.7 20.29C10.8863 20.4774 10.9908 20.7308 10.9908 20.995C10.9908 21.2592 10.8863 21.5127 10.7 21.7L7 25.41Z" fill="#D8A353"/>
</svg>
