<svg width="64" height="64" viewBox="0 0 64 64" fill="none" xmlns="http://www.w3.org/2000/svg">
<g clip-path="url(#clip0_28_269)">
<path d="M62.406 14.322L57.456 19.272L46.142 7.96L51.092 3.008C51.2742 2.8194 51.375 2.5668 51.3727 2.3046C51.3704 2.04241 51.2652 1.79159 51.0798 1.60619C50.8944 1.42078 50.6436 1.31561 50.3814 1.31333C50.1192 1.31105 49.8666 1.41185 49.678 1.594L48.972 2.3L38.366 12.908C38.1785 13.0955 38.0732 13.3498 38.0732 13.615C38.0732 13.8802 38.1785 14.1345 38.366 14.322L39.074 15.03L37.614 16.49L36.68 17.42L33.024 16.202C32.8476 16.1437 32.6585 16.1354 32.4778 16.1781C32.297 16.2208 32.1316 16.3129 32 16.444L31.292 15.736C30.8478 15.3058 30.2842 15.0195 29.6748 14.9146C29.0654 14.8097 28.4385 14.8911 27.876 15.148L26.342 13.614L27.048 12.908C27.2355 12.7205 27.3408 12.4662 27.3408 12.201C27.3408 11.9358 27.2355 11.6815 27.048 11.494L16.444 0.886004L15.736 0.180004C15.5474 -0.00215422 15.2948 -0.102949 15.0326 -0.10067C14.7704 -0.0983918 14.5196 0.00677714 14.3342 0.192185C14.1488 0.377593 14.0436 0.628406 14.0413 0.890603C14.039 1.1528 14.1398 1.4054 14.322 1.594L19.272 6.546L7.958 17.858L3.008 12.908C2.8194 12.7258 2.5668 12.6251 2.3046 12.6273C2.0424 12.6296 1.79159 12.7348 1.60618 12.9202C1.42077 13.1056 1.3156 13.3564 1.31333 13.6186C1.31105 13.8808 1.41184 14.1334 1.594 14.322L2.302 15.03L12.908 25.638C13.0009 25.7311 13.1112 25.805 13.2327 25.8554C13.3542 25.9058 13.4845 25.9318 13.616 25.9318C13.7475 25.9318 13.8778 25.9058 13.9993 25.8554C14.1208 25.805 14.2311 25.7311 14.324 25.638L15.032 24.93L17.154 27.052H17.156L17.42 27.32L16.202 30.976C16.1433 31.1519 16.1347 31.3406 16.1771 31.521C16.2195 31.7015 16.3112 31.8666 16.442 31.998L15.734 32.706C15.2964 33.1453 15.0054 33.7092 14.9009 34.3204C14.7963 34.9316 14.8833 35.5602 15.15 36.12L13.614 37.656L12.906 36.948C12.7151 36.7671 12.462 36.6663 12.199 36.6663C11.936 36.6663 11.6829 36.7671 11.492 36.948L0.886 47.556L0.18 48.264C-0.00215803 48.4526 -0.102952 48.7052 -0.100674 48.9674C-0.0983956 49.2296 0.00677332 49.4804 0.192181 49.6658C0.37759 49.8512 0.628402 49.9564 0.890599 49.9587C1.1528 49.961 1.4054 49.8602 1.594 49.678L6.544 44.728L17.858 56.04L12.908 60.992C12.8152 61.085 12.7415 61.1953 12.6913 61.3168C12.6411 61.4382 12.6154 61.5683 12.6154 61.6997C12.6155 61.8311 12.6415 61.9612 12.6919 62.0826C12.7422 62.2039 12.816 62.3142 12.909 62.407C13.002 62.4998 13.1123 62.5735 13.2338 62.6237C13.3552 62.6739 13.4853 62.6997 13.6167 62.6996C13.7481 62.6995 13.8782 62.6735 13.9995 62.6231C14.1209 62.5728 14.2312 62.499 14.324 62.406L15.03 61.7L25.636 51.092C25.8235 50.9045 25.9288 50.6502 25.9288 50.385C25.9288 50.1198 25.8235 49.8655 25.636 49.678L24.928 48.97L26.388 47.51L27.318 46.58L30.974 47.798C31.1505 47.8554 31.3393 47.8632 31.5199 47.8205C31.7005 47.7779 31.8659 47.6864 31.998 47.556L32.706 48.264C33.1505 48.6938 33.7141 48.9797 34.3234 49.0846C34.9327 49.1894 35.5594 49.1084 36.122 48.852L37.656 50.386L36.95 51.092C36.7625 51.2795 36.6572 51.5338 36.6572 51.799C36.6572 52.0642 36.7625 52.3185 36.95 52.506L47.556 63.114L48.262 63.82C48.3546 63.9136 48.4649 63.9879 48.5864 64.0386C48.7079 64.0894 48.8383 64.1155 48.97 64.1155C49.1017 64.1155 49.2321 64.0894 49.3536 64.0386C49.4751 63.9879 49.5854 63.9136 49.678 63.82C49.8655 63.6325 49.9708 63.3782 49.9708 63.113C49.9708 62.8478 49.8655 62.5935 49.678 62.406L44.728 57.454L56.042 46.142L60.992 51.092C61.1806 51.2742 61.4332 51.375 61.6954 51.3727C61.9576 51.3704 62.2084 51.2652 62.3938 51.0798C62.5792 50.8944 62.6844 50.6436 62.6867 50.3814C62.689 50.1192 62.5882 49.8666 62.406 49.678L61.698 48.97L51.092 38.362C50.9011 38.1811 50.648 38.0803 50.385 38.0803C50.122 38.0803 49.8689 38.1811 49.678 38.362L48.97 39.07L46.848 36.948L46.58 36.68L47.798 33.024C47.8567 32.8481 47.8653 32.6594 47.8229 32.479C47.7805 32.2985 47.6888 32.1334 47.558 32.002L48.266 31.294C49.186 30.372 49.382 28.996 48.85 27.88L50.386 26.344L51.094 27.052C51.1869 27.1451 51.2972 27.219 51.4187 27.2694C51.5402 27.3198 51.6705 27.3458 51.802 27.3458C51.9335 27.3458 52.0638 27.3198 52.1853 27.2694C52.3068 27.219 52.4171 27.1451 52.51 27.052L63.116 16.444L63.824 15.736C63.9168 15.6429 63.9904 15.5324 64.0406 15.4109C64.0907 15.2893 64.1165 15.1591 64.1163 15.0276C64.1161 14.8961 64.09 14.7659 64.0395 14.6445C63.989 14.5231 63.9151 14.4128 63.822 14.32C63.7289 14.2272 63.6184 14.1536 63.4969 14.1034C63.3753 14.0533 63.2451 14.0276 63.1136 14.0277C62.9821 14.0279 62.8519 14.054 62.7305 14.1045C62.6091 14.155 62.4988 14.2289 62.406 14.322ZM9.372 19.272L20.686 7.958L24.928 12.2L24.222 12.906L19.272 17.858L13.616 23.516L9.372 19.272ZM16.444 23.516L20.686 19.272L24.928 15.028L27.05 17.148C27.2413 17.329 27.4946 17.4299 27.758 17.4299C28.0214 17.4299 28.2747 17.329 28.466 17.148C28.6565 16.9662 28.9097 16.8648 29.173 16.8648C29.4363 16.8648 29.6895 16.9662 29.88 17.148L30.588 17.856L28.466 19.978L18.734 29.71L19.514 27.368C19.5728 27.1917 19.5813 27.0025 19.5386 26.8216C19.4958 26.6407 19.4035 26.4753 19.272 26.344L17.904 24.976L16.444 23.516ZM19.272 54.628L7.958 43.314L12.202 39.07L17.858 44.728L22.808 49.678L23.514 50.384L19.272 54.628ZM31.022 45.706L27.366 44.488C27.1897 44.4292 27.0005 44.4207 26.8196 44.4634C26.6387 44.5062 26.4733 44.5985 26.342 44.73L25.634 45.438L24.974 46.098L23.514 47.558L19.272 43.314L15.03 39.07L17.152 36.948C17.542 36.558 17.542 35.924 17.152 35.534C16.762 35.144 16.762 34.51 17.152 34.12L29.882 21.392C30.0725 21.2102 30.3257 21.1088 30.589 21.1088C30.8523 21.1088 31.1055 21.2102 31.296 21.392C31.4831 21.5801 31.5881 21.8347 31.5881 22.1C31.5881 22.3653 31.4831 22.6199 31.296 22.808L28.468 25.636C28.2858 25.8246 28.185 26.0772 28.1873 26.3394C28.1896 26.6016 28.2948 26.8524 28.4802 27.0378C28.6656 27.2232 28.9164 27.3284 29.1786 27.3307C29.4408 27.333 29.6934 27.2322 29.882 27.05L32.71 24.222C32.901 24.0405 33.1545 23.9393 33.418 23.9393C33.6815 23.9393 33.9349 24.0405 34.126 24.222C34.2191 24.3147 34.2929 24.4249 34.3433 24.5462C34.3937 24.6676 34.4196 24.7976 34.4196 24.929C34.4196 25.0604 34.3937 25.1905 34.3433 25.3118C34.2929 25.4331 34.2191 25.5433 34.126 25.636L31.298 28.464C31.1105 28.6518 31.0053 28.9063 31.0054 29.1717C31.0056 29.4371 31.1112 29.6915 31.299 29.879C31.4868 30.0665 31.7413 30.1717 32.0067 30.1716C32.2721 30.1714 32.5265 30.0658 32.714 29.878L35.542 27.05C35.7306 26.8678 35.9832 26.7671 36.2454 26.7693C36.5076 26.7716 36.7584 26.8768 36.9438 27.0622C37.1292 27.2476 37.2344 27.4984 37.2367 27.7606C37.239 28.0228 37.1382 28.2754 36.956 28.464L34.126 31.292C33.9385 31.4798 33.8333 31.7343 33.8334 31.9997C33.8336 32.2651 33.9392 32.5195 34.127 32.707C34.3148 32.8945 34.5693 32.9997 34.8347 32.9996C35.1001 32.9994 35.3545 32.8938 35.542 32.706L38.372 29.878C38.5625 29.6962 38.8157 29.5948 39.079 29.5948C39.3423 29.5948 39.5955 29.6962 39.786 29.878C39.9735 30.0655 40.0788 30.3198 40.0788 30.585C40.0788 30.8502 39.9735 31.1045 39.786 31.292L33.858 37.22L33.85 37.228L29.988 41.09C29.8058 41.2786 29.705 41.5312 29.7073 41.7934C29.7096 42.0556 29.8148 42.3064 30.0002 42.4918C30.1856 42.6772 30.4364 42.7824 30.6986 42.7847C30.9608 42.787 31.2134 42.6862 31.402 42.504L32.002 41.904L32.008 41.9L35.27 38.638C35.6749 38.2348 36.2076 37.9851 36.7765 37.9318C37.3455 37.8785 37.9153 38.0249 38.388 38.346L31.022 45.706ZM54.628 44.728L43.314 56.042L39.072 51.8L39.778 51.094L44.728 46.144L50.384 40.486L54.628 44.728ZM47.556 40.484L43.314 44.728L39.072 48.972L36.95 46.852C36.7585 46.6714 36.5052 46.5708 36.242 46.5708C35.9788 46.5708 35.7255 46.6714 35.534 46.852C35.3435 47.0338 35.0903 47.1352 34.827 47.1352C34.5637 47.1352 34.3105 47.0338 34.12 46.852L33.412 46.144L40.53 39.024C40.6438 38.9057 40.7256 38.7605 40.768 38.602C40.9267 38.5601 41.072 38.4781 41.19 38.364L45.266 34.29L44.484 36.634C44.4252 36.8103 44.4167 36.9995 44.4594 37.1804C44.5022 37.3613 44.5945 37.5267 44.726 37.658L46.094 39.026L47.556 40.484ZM48.97 24.93L46.848 27.052C46.458 27.442 46.458 28.076 46.848 28.466C47.238 28.856 47.238 29.49 46.848 29.88L39.79 36.936C39.2373 36.4806 38.5827 36.1657 37.882 36.018L41.192 32.708C41.7539 32.1452 42.0695 31.3823 42.0695 30.587C42.0695 29.7917 41.7539 29.0288 41.192 28.466C40.6594 27.9556 39.9554 27.6625 39.218 27.644C39.1973 26.8914 38.8922 26.1746 38.364 25.638C37.8376 25.1209 37.1374 24.8185 36.4 24.79C36.3706 24.045 36.0622 23.3383 35.536 22.81C35.0034 22.2996 34.2994 22.0065 33.562 21.988C33.5419 21.2343 33.2359 20.5164 32.706 19.98C32.4562 19.744 32.1654 19.5556 31.848 19.424L32.976 18.296L36.632 19.514C36.8083 19.5728 36.9975 19.5813 37.1784 19.5386C37.3593 19.4958 37.5247 19.4035 37.656 19.272L38.364 18.564L39.024 17.904L40.484 16.444L44.726 20.688L48.97 24.93ZM51.798 24.93L46.142 19.272L41.192 14.322L40.486 13.616L44.728 9.374L56.042 20.688L51.798 24.93Z" fill="#D8A353"/>
<path d="M52.5071 21.3931C52.8976 21.0026 52.8976 20.3694 52.5071 19.9789C52.1166 19.5884 51.4834 19.5884 51.0929 19.9789C50.7024 20.3694 50.7024 21.0026 51.0929 21.3931C51.4834 21.7836 52.1166 21.7836 52.5071 21.3931Z" fill="#D8A353"/>
<path d="M12.9071 44.021C13.2976 43.6305 13.2976 42.9973 12.9071 42.6068C12.5166 42.2163 11.8834 42.2163 11.4929 42.6068C11.1024 42.9974 11.1024 43.6305 11.4929 44.0211C11.8834 44.4116 12.5166 44.4116 12.9071 44.021Z" fill="#D8A353"/>
<path d="M44.0197 52.5057C44.4102 52.1151 44.4102 51.482 44.0197 51.0914C43.6291 50.7009 42.996 50.7009 42.6055 51.0915C42.2149 51.482 42.215 52.1152 42.6055 52.5057C42.996 52.8962 43.6292 52.8962 44.0197 52.5057Z" fill="#D8A353"/>
<path d="M21.3937 12.9085C21.7842 12.518 21.7842 11.8848 21.3937 11.4943C21.0032 11.1038 20.37 11.1038 19.9795 11.4943C19.589 11.8848 19.589 12.518 19.9795 12.9085C20.37 13.299 21.0032 13.299 21.3937 12.9085Z" fill="#D8A353"/>
</g>
<defs>
<clipPath id="clip0_28_269">
<rect width="64" height="64" fill="white"/>
</clipPath>
</defs>
</svg>
