<svg width="56" height="56" viewBox="0 0 56 56" fill="none" xmlns="http://www.w3.org/2000/svg">
<path d="M34.52 30.28L32.24 28L34.24 26C35.251 26.2676 36.3145 26.2662 37.3248 25.9961C38.3352 25.726 39.2574 25.1964 40 24.46C40.8673 23.6006 41.4797 22.5178 41.7692 21.3316C42.0587 20.1455 42.014 18.9023 41.64 17.74C41.5808 17.5851 41.484 17.4473 41.3583 17.339C41.2327 17.2308 41.082 17.1555 40.92 17.12C40.7563 17.0843 40.5863 17.0904 40.4255 17.1376C40.2648 17.1847 40.1185 17.2715 40 17.39L38.59 18.81C38.497 18.9037 38.3864 18.9781 38.2646 19.0289C38.1427 19.0797 38.012 19.1058 37.88 19.1058C37.748 19.1058 37.6173 19.0797 37.4954 19.0289C37.3736 18.9781 37.263 18.9037 37.17 18.81C37.0763 18.717 37.0019 18.6064 36.9511 18.4846C36.9003 18.3627 36.8742 18.232 36.8742 18.1C36.8742 17.968 36.9003 17.8373 36.9511 17.7154C37.0019 17.5936 37.0763 17.483 37.17 17.39L38.61 16C38.7269 15.8826 38.8127 15.7379 38.8599 15.5791C38.907 15.4202 38.9139 15.2522 38.88 15.09C38.846 14.9262 38.7714 14.7735 38.6631 14.6459C38.5548 14.5184 38.4162 14.4201 38.26 14.36C36.925 13.9259 35.4862 13.9294 34.1533 14.3701C32.8204 14.8108 31.6631 15.6656 30.85 16.81C30.3522 17.531 30.0166 18.3513 29.8664 19.2145C29.7162 20.0777 29.7549 20.9632 29.98 21.81L27.98 23.81L25.98 21.81C26.2594 20.7934 26.2661 19.7211 25.9992 18.7011C25.7324 17.6812 25.2015 16.7495 24.46 16C23.6006 15.1327 22.5178 14.5203 21.3316 14.2308C20.1455 13.9413 18.9023 13.986 17.74 14.36C17.5838 14.4201 17.4452 14.5184 17.3369 14.6459C17.2286 14.7735 17.154 14.9262 17.12 15.09C17.0861 15.2522 17.093 15.4202 17.1401 15.5791C17.1873 15.7379 17.2731 15.8826 17.39 16L18.81 17.41C18.9037 17.503 18.9781 17.6136 19.0289 17.7354C19.0797 17.8573 19.1058 17.988 19.1058 18.12C19.1058 18.252 19.0797 18.3827 19.0289 18.5046C18.9781 18.6264 18.9037 18.737 18.81 18.83C18.717 18.9237 18.6064 18.9981 18.4846 19.0489C18.3627 19.0997 18.232 19.1258 18.1 19.1258C17.968 19.1258 17.8373 19.0997 17.7154 19.0489C17.5936 18.9981 17.483 18.9237 17.39 18.83L16 17.39C15.8815 17.2715 15.7352 17.1847 15.5745 17.1376C15.4137 17.0904 15.2437 17.0843 15.08 17.12C14.918 17.1555 14.7673 17.2308 14.6417 17.339C14.516 17.4473 14.4192 17.5851 14.36 17.74C13.9253 19.0759 13.9295 20.516 14.3722 21.8493C14.8148 23.1826 15.6726 24.3393 16.82 25.15C17.54 25.6499 18.3608 25.9859 19.2246 26.1345C20.0885 26.2831 20.9744 26.2406 21.82 26.01L23.82 28.01L21.54 30.28C20.466 29.9907 19.3326 30.0057 18.2666 30.3232C17.2006 30.6408 16.2438 31.2485 15.5031 32.0783C14.7625 32.9082 14.2671 33.9276 14.0723 35.0228C13.8775 36.1179 13.9909 37.2456 14.4 38.28C14.4592 38.4349 14.556 38.5727 14.6817 38.681C14.8073 38.7892 14.958 38.8645 15.12 38.9C15.2837 38.9357 15.4537 38.9296 15.6145 38.8825C15.7752 38.8353 15.9215 38.7485 16.04 38.63L17.16 37.5C17.253 37.4063 17.3636 37.3319 17.4854 37.2811C17.6073 37.2303 17.738 37.2042 17.87 37.2042C18.002 37.2042 18.1327 37.2303 18.2546 37.2811C18.3764 37.3319 18.487 37.4063 18.58 37.5C18.6737 37.593 18.7481 37.7036 18.7989 37.8254C18.8497 37.9473 18.8758 38.078 18.8758 38.21C18.8758 38.342 18.8497 38.4727 18.7989 38.5946C18.7481 38.7164 18.6737 38.827 18.58 38.92L17.39 40C17.2731 40.1174 17.1873 40.2621 17.1401 40.4209C17.093 40.5798 17.0861 40.7478 17.12 40.91C17.154 41.0738 17.2286 41.2265 17.3369 41.3541C17.4452 41.4816 17.5838 41.5799 17.74 41.64C18.4358 41.9077 19.1745 42.0466 19.92 42.05C20.8404 42.0506 21.7486 41.8394 22.5743 41.4328C23.4 41.0262 24.1211 40.4351 24.6818 39.7052C25.2424 38.9753 25.6277 38.1263 25.8078 37.2237C25.9878 36.3211 25.9578 35.3891 25.72 34.5L28 32.24L30.27 34.52C30.032 35.41 30.0022 36.3428 30.1827 37.2461C30.3633 38.1495 30.7495 38.9991 31.3113 39.7292C31.8731 40.4593 32.5955 41.0502 33.4225 41.4561C34.2494 41.862 35.1588 42.0721 36.08 42.07C36.8255 42.0666 37.5642 41.9277 38.26 41.66C38.4162 41.5999 38.5548 41.5016 38.6631 41.3741C38.7714 41.2465 38.846 41.0938 38.88 40.93C38.9139 40.7678 38.907 40.5998 38.8599 40.4409C38.8127 40.2821 38.7269 40.1374 38.61 40.02L37.48 38.9C37.3863 38.807 37.3119 38.6964 37.2611 38.5746C37.2103 38.4527 37.1842 38.322 37.1842 38.19C37.1842 38.058 37.2103 37.9273 37.2611 37.8054C37.3119 37.6836 37.3863 37.573 37.48 37.48C37.573 37.3863 37.6836 37.3119 37.8054 37.2611C37.9273 37.2103 38.058 37.1842 38.19 37.1842C38.322 37.1842 38.4527 37.2103 38.5746 37.2611C38.6964 37.3119 38.807 37.3863 38.9 37.48L40 38.61C40.1185 38.7285 40.2648 38.8153 40.4255 38.8624C40.5863 38.9096 40.7563 38.9157 40.92 38.88C41.082 38.8445 41.2327 38.7692 41.3583 38.661C41.484 38.5527 41.5808 38.4149 41.64 38.26C42.0491 37.2256 42.1625 36.0979 41.9677 35.0028C41.7729 33.9076 41.2775 32.8882 40.5369 32.0583C39.7962 31.2285 38.8394 30.6208 37.7734 30.3032C36.7074 29.9857 35.574 29.9707 34.5 30.26L34.52 30.28ZM22.75 24.17C22.6133 24.0318 22.4393 23.9365 22.2493 23.8956C22.0592 23.8548 21.8614 23.8702 21.68 23.94C21.0782 24.1718 20.4292 24.2547 19.7885 24.1816C19.1477 24.1085 18.5341 23.8815 18 23.52C17.4631 23.1405 17.0089 22.6559 16.6651 22.0955C16.3213 21.535 16.095 20.9106 16 20.26C16.569 20.7936 17.3199 21.0906 18.1 21.0906C18.8801 21.0906 19.631 20.7936 20.2 20.26C20.4865 19.9864 20.716 19.6588 20.8752 19.2961C21.0344 18.9334 21.1202 18.5427 21.1276 18.1467C21.1351 17.7506 21.064 17.357 20.9185 16.9886C20.773 16.6201 20.556 16.2841 20.28 16C21.3204 16.1536 22.288 16.6251 23.05 17.35C23.5996 17.901 23.9765 18.6003 24.1346 19.3623C24.2927 20.1243 24.2251 20.9159 23.94 21.64C23.869 21.8205 23.8519 22.0177 23.891 22.2077C23.93 22.3977 24.0235 22.5722 24.16 22.71L26.59 25.13L25.17 26.55L22.75 24.17ZM23.87 33.54C23.7335 33.6778 23.64 33.8523 23.601 34.0423C23.5619 34.2323 23.579 34.4295 23.65 34.61C23.9351 35.3341 24.0027 36.1257 23.8446 36.8877C23.6865 37.6497 23.3096 38.349 22.76 38.9C22.0612 39.5871 21.1381 39.999 20.16 40.06C20.6214 39.4821 20.8531 38.7542 20.8106 38.016C20.7682 37.2777 20.4546 36.5812 19.93 36.06C19.3679 35.4972 18.6054 35.1807 17.81 35.18C17.1311 35.1788 16.4718 35.408 15.94 35.83C15.9771 35.1999 16.1628 34.5876 16.4819 34.043C16.801 33.4984 17.2445 33.0371 17.776 32.6967C18.3075 32.3563 18.9121 32.1466 19.5402 32.0846C20.1683 32.0226 20.8022 32.1101 21.39 32.34C21.5714 32.4098 21.7692 32.4252 21.9593 32.3844C22.1493 32.3435 22.3233 32.2482 22.46 32.11L31.83 22.74C31.9682 22.6033 32.0635 22.4293 32.1044 22.2393C32.1452 22.0492 32.1298 21.8514 32.06 21.67C31.8299 21.0696 31.7479 20.4225 31.821 19.7836C31.8941 19.1447 32.1202 18.5329 32.48 18C32.8586 17.4623 33.343 17.0075 33.9036 16.6636C34.4642 16.3197 35.0891 16.0939 35.74 16C35.1903 16.5608 34.8824 17.3147 34.8824 18.1C34.8824 18.8853 35.1903 19.6392 35.74 20.2C36.3003 20.7361 37.0428 21.0403 37.8182 21.0514C38.5936 21.0625 39.3445 20.7798 39.92 20.26C39.7664 21.3004 39.2949 22.268 38.57 23.03C38.019 23.5796 37.3197 23.9565 36.5577 24.1146C35.7957 24.2727 35.0041 24.2051 34.28 23.92C34.0995 23.849 33.9023 23.8319 33.7123 23.871C33.5223 23.91 33.3478 24.0035 33.21 24.14L23.87 33.54ZM36.07 36.07C35.5454 36.5912 35.2318 37.2877 35.1894 38.026C35.1469 38.7642 35.3786 39.4921 35.84 40.07C35.231 40.0363 34.6378 39.8638 34.1057 39.5657C33.5736 39.2676 33.1167 38.8518 32.77 38.35C32.4002 37.8101 32.1685 37.1876 32.0953 36.5373C32.0221 35.887 32.1095 35.2286 32.35 34.62C32.4198 34.4386 32.4352 34.2408 32.3944 34.0507C32.3535 33.8607 32.2582 33.6867 32.12 33.55L29.41 30.84L30.83 29.42L33.54 32.14C33.6778 32.2765 33.8523 32.37 34.0423 32.409C34.2323 32.4481 34.4295 32.431 34.61 32.36C35.3341 32.0749 36.1257 32.0073 36.8877 32.1654C37.6497 32.3235 38.349 32.7004 38.9 33.25C39.5871 33.9488 39.999 34.8719 40.06 35.85C39.4774 35.4063 38.7557 35.1848 38.0245 35.2251C37.2933 35.2654 36.6003 35.565 36.07 36.07ZM53 22H48.83C48.6262 21.9979 48.4279 21.9335 48.2617 21.8156C48.0955 21.6976 47.9693 21.5317 47.9 21.34C47.5871 20.4161 47.213 19.5141 46.78 18.64C46.6958 18.4519 46.6717 18.2424 46.7111 18.0402C46.7505 17.8379 46.8514 17.6527 47 17.51L50 14.51C50.2814 14.2337 50.5043 13.9036 50.6554 13.5394C50.8066 13.1752 50.883 12.7843 50.88 12.39C50.8793 11.5946 50.5628 10.8321 50 10.27L45.76 6.03C45.1975 5.4682 44.435 5.15264 43.64 5.15264C42.845 5.15264 42.0825 5.4682 41.52 6.03L38.49 9C38.3438 9.14365 38.157 9.23892 37.9549 9.2729C37.7528 9.30688 37.5451 9.27794 37.36 9.19C36.4859 8.75703 35.5839 8.38287 34.66 8.07C34.4683 8.00071 34.3024 7.87451 34.1844 7.7083C34.0665 7.54209 34.0021 7.3438 34 7.14V3C34 2.20435 33.6839 1.44129 33.1213 0.87868C32.5587 0.316071 31.7956 0 31 0H25C24.2044 0 23.4413 0.316071 22.8787 0.87868C22.3161 1.44129 22 2.20435 22 3V7.17C21.9979 7.3738 21.9335 7.57209 21.8156 7.7383C21.6976 7.90451 21.5317 8.03071 21.34 8.1C20.4161 8.41287 19.5141 8.78703 18.64 9.22C18.4519 9.30423 18.2424 9.3283 18.0402 9.28892C17.8379 9.24954 17.6527 9.14863 17.51 9L14.51 6.05C13.9475 5.4882 13.185 5.17264 12.39 5.17264C11.595 5.17264 10.8325 5.4882 10.27 6.05L6.03 10.29C5.46723 10.8521 5.1507 11.6146 5.15 12.41C5.14701 12.8043 5.22338 13.1952 5.37456 13.5594C5.52574 13.9236 5.74864 14.2537 6.03 14.53L8.98 17.53C9.12365 17.6762 9.21892 17.863 9.2529 18.0651C9.28688 18.2672 9.25794 18.4749 9.17 18.66C8.73703 19.5341 8.36287 20.4361 8.05 21.36C7.98071 21.5517 7.85451 21.7176 7.6883 21.8356C7.52209 21.9535 7.3238 22.0179 7.12 22.02H3C2.20435 22.02 1.44129 22.3361 0.87868 22.8987C0.316071 23.4613 0 24.2244 0 25.02V31.02C0 31.8156 0.316071 32.5787 0.87868 33.1413C1.44129 33.7039 2.20435 34.02 3 34.02H7.17C7.3738 34.0221 7.57209 34.0865 7.7383 34.2044C7.90451 34.3224 8.03071 34.4883 8.1 34.68C8.41287 35.6039 8.78703 36.5059 9.22 37.38C9.29972 37.5656 9.32138 37.771 9.28211 37.9691C9.24284 38.1672 9.14448 38.3488 9 38.49L6.05 41.44C5.76864 41.7163 5.54574 42.0464 5.39456 42.4106C5.24338 42.7748 5.16701 43.1657 5.17 43.56C5.1707 44.3554 5.48723 45.1179 6.05 45.68L10.29 49.92C10.8525 50.4818 11.615 50.7974 12.41 50.7974C13.205 50.7974 13.9675 50.4818 14.53 49.92L17.53 46.92C17.6762 46.7763 17.863 46.6811 18.0651 46.6471C18.2672 46.6131 18.4749 46.6421 18.66 46.73C19.5341 47.163 20.4361 47.5371 21.36 47.85C21.5517 47.9193 21.7176 48.0455 21.8356 48.2117C21.9535 48.3779 22.0179 48.5762 22.02 48.78V53C22.02 53.7956 22.3361 54.5587 22.8987 55.1213C23.4613 55.6839 24.2244 56 25.02 56H31.02C31.8156 56 32.5787 55.6839 33.1413 55.1213C33.7039 54.5587 34.02 53.7956 34.02 53V48.83C34.0221 48.6262 34.0865 48.4279 34.2044 48.2617C34.3224 48.0955 34.4883 47.9693 34.68 47.9C35.6039 47.5871 36.5059 47.213 37.38 46.78C37.5651 46.6921 37.7728 46.6631 37.9749 46.6971C38.177 46.7311 38.3638 46.8264 38.51 46.97L41.46 49.97C42.0225 50.5318 42.785 50.8474 43.58 50.8474C44.375 50.8474 45.1375 50.5318 45.7 49.97L49.94 45.73C50.5028 45.1679 50.8193 44.4054 50.82 43.61C50.823 43.2157 50.7466 42.8248 50.5954 42.4606C50.4443 42.0964 50.2214 41.7663 49.94 41.49L46.94 38.54C46.7963 38.3938 46.7011 38.207 46.6671 38.0049C46.6331 37.8028 46.6621 37.5951 46.75 37.41C47.183 36.5359 47.5571 35.6339 47.87 34.71C47.9393 34.5183 48.0655 34.3524 48.2317 34.2344C48.3979 34.1165 48.5962 34.0521 48.8 34.05H53C53.7956 34.05 54.5587 33.7339 55.1213 33.1713C55.6839 32.6087 56 31.8456 56 31.05V25C56 24.2044 55.6839 23.4413 55.1213 22.8787C54.5587 22.3161 53.7956 22 53 22ZM54 31C54 31.2652 53.8946 31.5196 53.7071 31.7071C53.5196 31.8946 53.2652 32 53 32H48.83C48.2093 31.9997 47.6039 32.1919 47.097 32.5501C46.5902 32.9083 46.2069 33.4148 46 34C45.7228 34.8385 45.3887 35.657 45 36.45C44.727 37.0101 44.6353 37.6413 44.7374 38.256C44.8396 38.8707 45.1306 39.4383 45.57 39.88L48.52 42.88C48.6127 42.9734 48.686 43.0843 48.7358 43.2061C48.7855 43.3279 48.8108 43.4584 48.81 43.59C48.8089 43.8523 48.7047 44.1037 48.52 44.29L44.27 48.54C44.0826 48.7263 43.8292 48.8308 43.565 48.8308C43.3008 48.8308 43.0474 48.7263 42.86 48.54L39.86 45.59C39.4237 45.1557 38.8644 44.8662 38.258 44.7607C37.6516 44.6551 37.0273 44.7387 36.47 45C35.6705 45.3895 34.8453 45.7236 34 46C33.4148 46.2069 32.9083 46.5902 32.5501 47.097C32.1919 47.6039 31.9997 48.2093 32 48.83V53C32 53.2652 31.8946 53.5196 31.7071 53.7071C31.5196 53.8946 31.2652 54 31 54H25C24.7348 54 24.4804 53.8946 24.2929 53.7071C24.1054 53.5196 24 53.2652 24 53V48.83C24.0003 48.2093 23.8081 47.6039 23.4499 47.097C23.0917 46.5902 22.5852 46.2069 22 46C21.1655 45.721 20.3503 45.3869 19.56 45C19.1502 44.7952 18.6981 44.6891 18.24 44.69C17.4481 44.6933 16.6896 45.0097 16.13 45.57L13.13 48.52C12.9426 48.7063 12.6892 48.8108 12.425 48.8108C12.1608 48.8108 11.9074 48.7063 11.72 48.52L7.47 44.27C7.28526 44.0837 7.1811 43.8323 7.18 43.57C7.17924 43.4384 7.20446 43.3079 7.25423 43.1861C7.30399 43.0643 7.37732 42.9534 7.47 42.86L10.42 39.86C10.8526 39.4226 11.1403 38.8628 11.244 38.2564C11.3478 37.65 11.2626 37.0264 11 36.47C10.6119 35.6699 10.2778 34.8448 10 34C9.79312 33.4148 9.40984 32.9083 8.90298 32.5501C8.39613 32.1919 7.79065 31.9997 7.17 32H3C2.73478 32 2.48043 31.8946 2.29289 31.7071C2.10536 31.5196 2 31.2652 2 31V25C2 24.7348 2.10536 24.4804 2.29289 24.2929C2.48043 24.1054 2.73478 24 3 24H7.17C7.79065 24.0003 8.39613 23.8081 8.90298 23.4499C9.40984 23.0917 9.79312 22.5852 10 22C10.2772 21.1615 10.6113 20.343 11 19.55C11.273 18.9899 11.3647 18.3587 11.2626 17.744C11.1604 17.1293 10.8694 16.5617 10.43 16.12L7.48 13.12C7.38732 13.0266 7.31399 12.9157 7.26423 12.7939C7.21446 12.6721 7.18924 12.5416 7.19 12.41C7.1911 12.1477 7.29526 11.8963 7.48 11.71L11.73 7.46C11.9174 7.27375 12.1708 7.16921 12.435 7.16921C12.6992 7.16921 12.9526 7.27375 13.14 7.46L16.14 10.41C16.5817 10.8494 17.1493 11.1404 17.764 11.2426C18.3787 11.3447 19.0099 11.253 19.57 10.98C20.357 10.599 21.1689 10.2716 22 10C22.5852 9.79312 23.0917 9.40984 23.4499 8.90298C23.8081 8.39613 24.0003 7.79065 24 7.17V3C24 2.73478 24.1054 2.48043 24.2929 2.29289C24.4804 2.10536 24.7348 2 25 2H31C31.2652 2 31.5196 2.10536 31.7071 2.29289C31.8946 2.48043 32 2.73478 32 3V7.17C31.9997 7.79065 32.1919 8.39613 32.5501 8.90298C32.9083 9.40984 33.4148 9.79312 34 10C34.8345 10.279 35.6497 10.6131 36.44 11C37.0001 11.273 37.6313 11.3647 38.246 11.2626C38.8607 11.1604 39.4283 10.8694 39.87 10.43L42.87 7.48C43.0574 7.29375 43.3108 7.18921 43.575 7.18921C43.8392 7.18921 44.0926 7.29375 44.28 7.48L48.53 11.73C48.7147 11.9163 48.8189 12.1677 48.82 12.43C48.8208 12.5616 48.7955 12.6921 48.7458 12.8139C48.696 12.9357 48.6227 13.0466 48.53 13.14L45.58 16.14C45.1474 16.5774 44.8597 17.1372 44.756 17.7436C44.6522 18.35 44.7374 18.9737 45 19.53C45.3881 20.3301 45.7222 21.1552 46 22C46.2069 22.5852 46.5902 23.0917 47.097 23.4499C47.6039 23.8081 48.2093 24.0003 48.83 24H53C53.2652 24 53.5196 24.1054 53.7071 24.2929C53.8946 24.4804 54 24.7348 54 25V31Z" fill="#D8A353"/>
</svg>
